<?xml version="1.0" standalone="no"?>
<!DOCTYPE svg PUBLIC "-//W3C//DTD SVG 20010904//EN"
 "http://www.w3.org/TR/2001/REC-SVG-20010904/DTD/svg10.dtd">
<svg version="1.0" xmlns="http://www.w3.org/2000/svg"
 width="450.000000pt" height="600.000000pt" viewBox="0 0 450.000000 600.000000"
 preserveAspectRatio="xMidYMid meet">

<g transform="translate(0.000000,600.000000) scale(0.100000,-0.100000)"
fill="#000000" stroke="none">
<path d="M2048 5795 c-4 -4 -55 -7 -113 -6 -58 0 -125 -4 -148 -10 -99 -24
-114 -29 -157 -50 -112 -54 -176 -137 -295 -379 -72 -146 -81 -170 -65 -180
11 -7 5 -17 -23 -46 -40 -42 -103 -183 -136 -307 -27 -101 -26 -185 4 -342 14
-72 25 -148 25 -170 0 -23 5 -46 10 -51 6 -6 32 -46 57 -90 l47 -79 1 -330 c1
-313 2 -332 22 -370 11 -22 24 -69 28 -105 4 -36 11 -72 15 -80 14 -28 21 -72
11 -66 -5 4 -3 -7 5 -24 9 -16 19 -32 25 -35 5 -4 9 -13 9 -22 0 -8 8 -27 18
-41 10 -15 24 -45 31 -67 16 -47 30 -67 42 -59 5 3 19 -15 30 -40 11 -26 24
-44 28 -42 4 3 22 -17 39 -45 18 -27 37 -49 43 -49 6 0 7 -5 3 -12 -5 -8 -2
-9 9 -5 10 3 17 2 17 -3 0 -6 7 -10 15 -10 8 0 19 -9 25 -20 6 -11 16 -20 23
-20 7 0 37 -20 67 -45 30 -25 56 -41 58 -35 2 5 9 4 17 -3 9 -9 10 -14 1 -19
-6 -5 0 -8 15 -8 14 0 35 -9 47 -21 13 -11 30 -22 40 -24 9 -2 29 -8 43 -13
15 -6 30 -8 34 -4 3 3 3 -1 0 -9 -3 -9 3 -23 15 -34 11 -10 20 -13 20 -7 0 8
15 10 43 8 23 -3 56 -5 72 -6 26 -1 27 -3 10 -10 -19 -8 -19 -9 3 -9 12 -1 31
8 42 19 12 12 26 17 36 13 15 -5 13 -8 -7 -15 -18 -7 -20 -11 -10 -18 9 -5 20
-3 28 6 13 12 17 11 31 -7 14 -16 22 -19 43 -11 28 11 58 42 40 42 -6 0 -11
-4 -11 -10 0 -5 -5 -10 -11 -10 -8 0 -8 4 1 15 6 8 8 20 4 27 -4 7 2 5 14 -5
11 -11 18 -25 16 -32 -4 -10 2 -12 26 -8 23 3 30 1 25 -7 -6 -9 -2 -9 14 0 19
10 20 14 10 28 -11 14 -11 15 1 5 21 -19 42 -16 79 11 20 15 42 23 56 20 15
-3 25 2 29 12 5 14 4 15 -9 4 -10 -8 -15 -9 -15 -1 0 11 13 15 39 11 8 -1 11
4 9 12 -3 7 2 20 10 28 14 13 15 12 9 -3 -6 -16 -2 -16 33 4 22 13 40 27 40
32 0 5 -7 4 -15 -3 -11 -9 -19 -10 -26 -3 -6 6 -5 10 3 11 44 6 58 10 91 31
23 14 34 27 30 37 -3 7 0 14 7 14 6 0 8 -5 4 -12 -5 -8 -2 -9 12 -3 10 4 30
10 44 13 26 5 70 45 70 64 0 6 7 5 17 -3 14 -12 16 -12 9 1 -4 8 1 4 12 -9 14
-18 21 -20 24 -10 11 32 19 -309 9 -372 -15 -91 -47 -218 -81 -320 -27 -78
-46 -156 -87 -339 -7 -36 -29 -159 -48 -275 -36 -224 -68 -396 -109 -590 -14
-66 -36 -181 -50 -255 -39 -206 -58 -294 -65 -302 -3 -4 -7 26 -9 65 -3 95
-31 299 -43 313 -5 6 -7 13 -4 16 6 6 -15 94 -41 171 -9 28 -20 45 -26 41 -7
-4 -8 -2 -4 4 4 7 1 26 -7 44 -17 40 -70 170 -87 216 -16 41 -14 130 4 181 10
29 10 42 2 45 -6 2 -3 5 7 5 9 1 17 7 17 15 0 8 6 21 14 28 20 21 48 77 42 87
-3 5 3 11 14 14 18 5 43 46 44 72 1 6 11 18 24 29 15 12 21 24 17 35 -5 13 -4
13 6 4 10 -10 16 -10 30 3 16 14 19 13 44 -13 l28 -28 -22 32 c-42 62 -158
147 -187 137 -14 -4 -15 -3 -6 4 10 7 8 12 -10 24 -68 45 -149 74 -133 48 3
-6 -1 -10 -10 -10 -9 0 -13 4 -10 10 3 5 -1 10 -10 10 -9 0 -13 -4 -10 -10 3
-5 2 -10 -4 -10 -5 0 -12 6 -14 13 -4 9 -7 9 -15 -1 -5 -8 -18 -12 -28 -10
-12 2 -18 -2 -16 -12 2 -12 0 -12 -11 2 -9 11 -18 14 -27 8 -8 -5 -25 -3 -42
6 -25 13 -29 13 -34 -1 -3 -8 -10 -15 -16 -15 -5 0 -6 5 -3 11 5 7 1 8 -11 1
-11 -5 -41 -20 -69 -33 -95 -46 -211 -144 -256 -218 -10 -17 -16 -31 -13 -31
10 0 60 54 67 72 3 10 13 18 21 18 8 0 16 5 18 11 6 19 43 -5 66 -43 12 -18
37 -55 56 -83 20 -27 41 -62 47 -77 6 -15 16 -25 22 -21 5 3 7 1 4 -4 -10 -16
4 -74 16 -66 6 3 7 1 3 -6 -4 -6 -2 -18 4 -26 9 -11 9 -15 1 -15 -6 0 -11 5
-11 11 0 5 -5 7 -10 4 -6 -4 -8 -16 -5 -28 5 -16 4 -18 -3 -8 -7 10 -15 6 -35
-20 -48 -65 -124 -249 -111 -270 4 -7 3 -9 -4 -5 -5 3 -12 0 -15 -6 -2 -7 -9
5 -15 27 -17 67 -108 451 -142 600 -63 274 -73 312 -131 487 -84 255 -105 386
-78 491 5 23 9 69 7 102 l-3 60 -26 -45 c-37 -67 -145 -194 -187 -223 -20 -14
-111 -48 -202 -77 -237 -76 -412 -141 -553 -208 -89 -43 -144 -62 -200 -71
-88 -14 -260 -65 -294 -87 l-23 -14 0 -1011 0 -1010 1172 2 c645 1 1177 4
1182 7 17 10 71 8 85 -2 11 -8 13 -8 7 2 -4 6 -2 12 3 12 6 0 11 -4 11 -10 0
-5 5 -10 11 -10 5 0 8 4 4 9 -3 5 -1 12 4 15 5 3 12 -2 16 -12 7 -16 8 -15 15
3 7 17 9 17 9 3 1 -10 5 -18 11 -18 5 0 7 7 4 15 -4 8 -1 15 5 15 6 0 11 -7
11 -15 0 -13 115 -15 975 -15 l975 0 -2 987 -3 988 -42 23 c-23 13 -120 54
-215 91 -95 38 -234 94 -308 126 -74 31 -151 63 -170 70 -19 7 -64 26 -100 43
-94 44 -214 91 -298 117 -90 28 -139 62 -191 129 -22 28 -60 73 -86 100 l-46
49 18 46 c9 25 39 74 65 109 45 59 53 77 49 110 -1 7 4 11 10 10 16 -4 54 125
38 131 -6 2 -3 11 7 22 9 11 18 31 20 47 1 15 7 50 13 77 23 106 39 225 34
245 -3 12 -1 31 5 43 21 43 31 204 25 404 l-6 202 27 50 c14 28 26 63 26 77 0
37 29 179 47 234 8 25 19 88 24 140 4 52 11 109 14 127 10 56 -13 120 -115
308 -35 64 -153 228 -204 283 -28 30 -107 93 -205 161 -46 32 -159 94 -251
138 -93 44 -167 68 -273 89 -89 17 -348 31 -359 19z m132 -672 c0 -5 39 -9 88
-11 48 -2 104 -8 125 -13 20 -5 42 -7 48 -4 5 4 16 2 23 -4 8 -7 18 -11 22
-10 5 1 23 -3 39 -10 32 -13 126 -36 185 -46 19 -3 69 -10 110 -16 54 -8 104
-25 178 -60 56 -28 102 -55 102 -61 0 -6 3 -8 6 -5 4 4 15 -8 25 -26 9 -17 22
-31 28 -30 15 4 14 -14 -1 -20 -10 -3 -10 -9 -1 -25 10 -16 10 -21 0 -25 -9
-3 -9 -7 1 -19 8 -10 9 -18 3 -22 -14 -9 -4 -112 14 -139 8 -13 13 -26 10 -29
-3 -3 2 -21 13 -39 33 -61 61 -172 67 -272 3 -54 14 -157 25 -228 27 -180 14
-317 -41 -437 -18 -40 -27 -70 -28 -100 -1 -7 -5 -11 -9 -8 -5 3 -9 0 -10 -7
-1 -7 -3 -23 -5 -37 -2 -14 -11 -43 -22 -65 -10 -22 -19 -51 -21 -65 -2 -14
-8 -26 -14 -28 -5 -2 -10 -13 -10 -25 0 -16 -3 -18 -9 -9 -7 11 -9 11 -14 -2
-4 -9 -12 -15 -19 -14 -7 2 -14 -8 -15 -22 l-2 -25 8 25 c8 23 9 24 10 3 1
-12 -3 -25 -9 -28 -5 -3 -10 -11 -10 -16 0 -6 5 -7 10 -4 6 3 10 2 10 -4 0 -5
-4 -12 -9 -15 -6 -4 -5 -20 1 -42 13 -47 3 -55 -15 -13 -8 19 -22 41 -32 49
-18 14 -18 14 -1 -12 10 -15 14 -32 10 -39 -5 -8 -9 -7 -16 5 -5 9 -14 16 -20
16 -6 0 -4 -8 5 -18 10 -10 14 -22 11 -25 -4 -4 -1 -15 7 -24 11 -15 11 -16
-1 -5 -21 18 -32 15 -20 -7 8 -16 6 -23 -12 -35 -12 -9 -17 -16 -10 -16 6 0
12 -11 12 -25 0 -14 5 -25 10 -25 6 0 10 -5 10 -10 0 -6 -8 -5 -19 2 -11 7
-18 15 -15 19 2 4 0 10 -5 13 -13 8 -7 -22 7 -36 7 -7 12 -17 12 -22 0 -6 -4
-5 -9 2 -6 10 -10 8 -14 -8 -4 -16 -2 -20 9 -16 9 3 12 1 9 -4 -3 -6 -18 -7
-33 -4 -26 6 -26 6 -7 -9 19 -14 19 -15 -8 -10 -21 4 -27 1 -27 -11 0 -11 -5
-15 -12 -10 -7 4 -4 -3 7 -16 21 -25 21 -25 -30 -4 -10 4 -15 0 -15 -10 0 -10
6 -13 18 -9 18 6 17 5 -9 -15 -12 -9 -16 -9 -17 1 -1 6 -3 23 -4 37 -2 14 -8
25 -15 25 -6 0 -15 3 -18 7 -8 8 -45 -33 -45 -49 0 -4 5 -1 10 7 5 8 10 10 10
4 0 -6 -6 -17 -14 -23 -11 -9 -15 -8 -20 5 -5 14 -9 13 -26 -7 -11 -13 -19
-19 -18 -14 2 6 -1 12 -7 13 -5 2 -19 8 -30 14 -18 8 -17 7 2 -10 24 -21 19
-40 -5 -19 -13 10 -14 8 -7 -13 7 -22 6 -23 -8 -11 -14 11 -19 11 -29 -1 -7
-7 -14 -23 -16 -36 -2 -12 -10 -35 -19 -50 -14 -26 -15 -26 -8 -2 12 46 10 63
-7 65 -10 2 -18 -3 -18 -11 0 -8 -3 -14 -7 -14 -15 0 -63 -88 -57 -104 3 -9 1
-16 -5 -16 -6 0 -11 10 -12 23 0 12 -3 36 -5 52 l-4 30 15 -25 c16 -29 16 -30
21 31 3 36 0 52 -16 70 l-20 24 10 -28 c15 -42 11 -46 -8 -10 l-17 32 0 -65
c0 -51 -2 -62 -11 -50 -23 32 -48 9 -37 -35 4 -16 3 -20 -6 -15 -6 4 -18 3
-25 -3 -10 -8 -17 -7 -26 4 -16 19 -44 19 -60 0 -7 -8 -22 -15 -34 -15 -14 0
-17 3 -9 8 13 8 7 52 -7 52 -5 0 -6 -8 -3 -19 3 -10 0 -22 -6 -25 -6 -4 -9 -1
-6 7 3 7 1 24 -4 38 -9 22 -10 21 -12 -16 -1 -22 -1 -44 0 -50 1 -5 -6 -1 -15
10 -8 11 -20 19 -26 17 -8 -2 -8 1 -2 10 6 7 7 27 3 43 -3 17 -7 22 -8 12 0
-10 -5 -16 -10 -12 -5 3 -17 -5 -25 -17 -10 -13 -16 -17 -16 -9 0 8 8 23 18
34 9 11 11 17 4 13 -8 -5 -19 -1 -28 10 -14 18 -14 17 -4 -5 9 -18 9 -22 0
-16 -7 4 -17 1 -22 -6 -7 -10 -7 -7 -3 9 4 13 2 22 -4 22 -10 0 -16 -29 -12
-53 1 -5 -3 -6 -8 -3 -5 4 -14 -2 -20 -11 -17 -30 -12 -9 8 33 11 21 17 42 15
46 -2 3 0 18 6 32 6 16 6 27 -1 31 -5 4 -8 1 -7 -6 2 -6 -2 -13 -9 -16 -7 -3
-9 3 -6 16 4 17 1 21 -17 21 -19 0 -20 -3 -10 -15 6 -8 10 -20 7 -27 -3 -7 -6
-4 -6 7 -1 15 -3 17 -10 6 -5 -8 -3 -25 6 -43 8 -16 13 -32 10 -34 -3 -3 -8 4
-12 15 -7 25 -20 27 -29 6 -3 -10 1 -15 12 -15 14 0 15 -2 3 -9 -10 -7 -20 -4
-32 10 -17 20 -35 27 -24 9 3 -5 1 -10 -5 -10 -7 0 -9 -7 -6 -17 6 -13 1 -12
-17 5 -13 13 -31 22 -38 20 -8 -2 -13 3 -11 10 1 6 -5 12 -13 12 -9 0 -12 6
-9 15 4 9 0 15 -10 15 -10 0 -13 5 -9 17 4 11 3 14 -5 9 -7 -4 -12 -3 -12 2 0
6 -10 8 -22 5 -13 -3 -20 -2 -16 2 4 5 3 14 -3 22 -9 9 -8 13 0 13 6 0 11 5
11 11 0 6 -9 8 -20 4 -14 -4 -20 -2 -20 8 0 8 -6 17 -13 20 -8 3 -14 -1 -14
-9 0 -8 4 -14 9 -14 5 0 6 -5 3 -11 -5 -6 -12 -4 -20 8 -13 17 -80 29 -69 12
3 -5 -1 -9 -9 -9 -7 0 -14 7 -14 15 0 8 5 15 11 15 5 0 1 7 -10 15 -15 11 -16
15 -4 15 8 1 2 7 -15 15 -20 9 -24 14 -12 14 9 1 17 6 17 12 0 5 6 7 13 3 9
-6 9 -5 0 8 -7 8 -9 19 -5 23 4 5 1 5 -6 1 -10 -6 -11 -1 -6 21 6 27 6 27 -12
11 -17 -17 -17 -18 2 -39 10 -13 13 -19 6 -15 -7 4 -21 2 -30 -6 -15 -12 -16
-11 -3 5 10 12 11 21 4 25 -5 4 -9 16 -7 26 1 11 -6 37 -18 59 -15 30 -22 37
-29 26 -5 -8 -9 -10 -9 -5 0 5 -6 3 -13 -3 -10 -8 -14 -7 -14 4 0 8 4 12 8 10
4 -3 9 2 13 10 3 8 1 15 -4 15 -14 0 -12 34 3 49 10 11 9 13 -4 8 -13 -4 -18
2 -21 29 -2 19 -1 34 2 34 3 0 7 15 7 33 2 28 1 29 -7 10 -10 -25 -22 -31 -19
-10 1 6 -2 28 -6 47 -7 29 -9 31 -16 15 -7 -18 -8 -17 -9 5 -2 36 -8 61 -18
85 -5 11 -18 39 -27 63 -10 23 -20 40 -23 37 -7 -7 -52 129 -60 180 -11 64 -8
193 5 290 7 50 15 124 18 165 11 142 25 202 63 257 27 41 32 56 24 66 -9 10
-8 18 2 33 9 12 11 23 5 30 -6 7 -6 22 1 38 13 34 13 39 0 31 -14 -8 -13 8 1
22 12 12 4 33 -12 33 -6 0 -7 -5 -3 -12 4 -7 3 -8 -4 -4 -9 5 -9 13 -2 27 6
10 10 38 9 62 0 23 1 49 3 57 3 8 11 35 18 60 7 25 13 48 12 52 -3 11 58 128
66 129 4 0 21 2 37 5 17 2 48 5 70 7 22 2 55 11 74 20 18 9 38 14 43 11 5 -3
19 1 31 9 12 7 47 15 77 16 65 2 91 5 147 19 23 5 43 6 45 1 2 -5 20 -4 42 2
21 6 49 8 62 5 12 -3 26 -2 29 4 7 12 25 13 25 3z m985 -263 c3 -5 -1 -10 -9
-10 -8 0 -18 5 -21 10 -3 6 1 10 9 10 8 0 18 -4 21 -10z m-1858 -1332 c-3 -7
-5 -2 -5 12 0 14 2 19 5 13 2 -7 2 -19 0 -25z m1963 22 c0 -5 -5 -10 -11 -10
-5 0 -7 5 -4 10 3 6 8 10 11 10 2 0 4 -4 4 -10z m11 -71 c-5 -13 -10 -19 -10
-12 -1 15 10 45 15 40 3 -2 0 -15 -5 -28z m-51 -55 c0 -8 -5 -12 -10 -9 -6 4
-8 11 -5 16 9 14 15 11 15 -7z m-59 -151 c-12 -20 -14 -14 -5 12 4 9 9 14 11
11 3 -2 0 -13 -6 -23z m-19 -48 c-2 -14 -8 -25 -12 -25 -4 0 -5 11 -2 25 2 14
8 25 12 25 4 0 5 -11 2 -25z m-1716 -33 c-17 -16 -18 -16 -5 5 7 12 15 20 18
17 3 -2 -3 -12 -13 -22z m1679 9 c3 -5 1 -12 -5 -16 -5 -3 -10 1 -10 9 0 18 6
21 15 7z m45 -95 c0 -3 -4 -8 -10 -11 -5 -3 -10 -1 -10 4 0 6 5 11 10 11 6 0
10 -2 10 -4z m-103 -68 c2 -17 0 -19 -7 -8 -5 8 -6 18 -4 22 8 12 10 10 11
-14z m-1527 -18 c0 -5 -2 -10 -4 -10 -3 0 -8 5 -11 10 -3 6 -1 10 4 10 6 0 11
-4 11 -10z m1493 -60 c-3 -12 -8 -19 -11 -16 -5 6 5 36 12 36 2 0 2 -9 -1 -20z
m-1418 -100 c3 -5 -3 -10 -15 -10 -12 0 -18 5 -15 10 3 6 10 10 15 10 5 0 12
-4 15 -10z m85 -40 c0 -5 -10 -10 -22 -9 -22 0 -22 1 -3 9 11 5 21 9 23 9 1 1
2 -3 2 -9z m1140 -20 c0 -5 -4 -10 -10 -10 -5 0 -10 5 -10 10 0 6 5 10 10 10
6 0 10 -4 10 -10z m-1143 -11 c-11 -7 -23 -7 -28 -2 -5 5 3 9 19 11 24 1 25 0
9 -9z m1316 -34 c-3 -9 -8 -14 -10 -11 -3 3 -2 9 2 15 9 16 15 13 8 -4z
m-1263 -5 c0 -5 -5 -10 -11 -10 -5 0 -7 5 -4 10 3 6 8 10 11 10 2 0 4 -4 4
-10z m1100 6 c0 -3 -4 -8 -10 -11 -5 -3 -10 -1 -10 4 0 6 5 11 10 11 6 0 10
-2 10 -4z m-81 -28 c0 -13 -3 -17 -6 -10 -2 6 -9 10 -14 7 -5 -4 -6 1 -3 9 9
24 24 19 23 -6z m101 -8 c0 -5 -5 -10 -11 -10 -5 0 -7 5 -4 10 3 6 8 10 11 10
2 0 4 -4 4 -10z m75 -30 c-3 -5 -11 -10 -16 -10 -6 0 -7 5 -4 10 3 6 11 10 16
10 6 0 7 -4 4 -10z m-1218 -32 c-3 -8 -6 -5 -6 6 -1 11 2 17 5 13 3 -3 4 -12
1 -19z m1014 -11 c-10 -9 -11 -8 -5 6 3 10 9 15 12 12 3 -3 0 -11 -7 -18z
m-766 4 c3 -5 2 -12 -3 -15 -5 -3 -9 1 -9 9 0 17 3 19 12 6z m612 -23 c-3 -7
-5 -2 -5 12 0 14 2 19 5 13 2 -7 2 -19 0 -25z m-417 2 c0 -5 -5 -10 -11 -10
-5 0 -7 5 -4 10 3 6 8 10 11 10 2 0 4 -4 4 -10z m-63 -67 c-3 -10 -5 -2 -5 17
0 19 2 27 5 18 2 -10 2 -26 0 -35z m342 -3 c1 -63 -2 -90 -10 -90 -3 0 -5 24
-3 53 1 28 3 61 3 71 2 38 10 10 10 -34z m33 5 c3 -13 1 -22 -3 -19 -9 5 -13
44 -5 44 2 0 6 -11 8 -25z m-112 -16 c0 -6 -4 -7 -10 -4 -5 3 -10 11 -10 16 0
6 5 7 10 4 6 -3 10 -11 10 -16z m-397 -24 c-3 -9 -8 -14 -10 -11 -3 3 -2 9 2
15 9 16 15 13 8 -4z m287 -40 c0 -5 -5 -3 -10 5 -5 8 -10 20 -10 25 0 6 5 3
10 -5 5 -8 10 -19 10 -25z m-202 5 c14 0 15 -2 2 -10 -17 -11 -43 7 -33 23 5
8 8 7 11 -1 2 -7 11 -12 20 -12z m432 -16 c-18 -21 -24 -10 -8 15 7 12 14 17
16 11 2 -6 -2 -17 -8 -26z m70 -9 c-7 -9 -15 -13 -19 -10 -3 3 1 10 9 15 21
14 24 12 10 -5z m-491 -26 c-22 -13 -31 -11 -17 5 7 8 17 12 22 9 4 -3 2 -9
-5 -14z m266 -9 c3 -6 -1 -7 -9 -4 -18 7 -21 14 -7 14 6 0 13 -4 16 -10z
m-205 -620 c0 -5 -2 -10 -4 -10 -3 0 -8 5 -11 10 -3 6 -1 10 4 10 6 0 11 -4
11 -10z m115 -20 c3 -5 -1 -10 -10 -10 -9 0 -13 5 -10 10 3 6 8 10 10 10 2 0
7 -4 10 -10z m80 0 c3 -5 -1 -10 -10 -10 -9 0 -13 5 -10 10 3 6 8 10 10 10 2
0 7 -4 10 -10z m42 -20 c1 -11 -2 -20 -6 -20 -5 0 -11 9 -14 20 -3 12 0 20 7
20 6 0 12 -9 13 -20z m38 10 c-3 -5 -10 -10 -16 -10 -5 0 -9 5 -9 10 0 6 7 10
16 10 8 0 12 -4 9 -10z m-378 -20 c1 -11 -2 -20 -8 -20 -5 0 -9 9 -9 20 0 11
4 20 8 20 4 0 8 -9 9 -20z m38 10 c-3 -5 -10 -10 -16 -10 -5 0 -9 5 -9 10 0 6
7 10 16 10 8 0 12 -4 9 -10z m35 0 c0 -5 -4 -10 -10 -10 -5 0 -10 5 -10 10 0
6 5 10 10 10 6 0 10 -4 10 -10z m40 0 c0 -5 -4 -10 -10 -10 -5 0 -10 5 -10 10
0 6 5 10 10 10 6 0 10 -4 10 -10z m35 0 c3 -5 1 -10 -4 -10 -6 0 -11 5 -11 10
0 6 2 10 4 10 3 0 8 -4 11 -10z m39 -11 c-3 -5 -10 -7 -15 -3 -5 3 -7 10 -3
15 3 5 10 7 15 3 5 -3 7 -10 3 -15z m225 -8 c-15 -5 -22 6 -14 19 6 9 10 9 16
-1 5 -8 4 -15 -2 -18z m-182 4 c0 -8 -6 -15 -12 -15 -6 0 -12 7 -12 15 0 8 6
15 12 15 6 0 12 -7 12 -15z m43 11 c0 -11 -19 -15 -25 -6 -3 5 1 10 9 10 9 0
16 -2 16 -4z m106 -46 c1 -17 -1 -30 -6 -30 -14 0 -21 18 -10 25 8 5 8 11 1
19 -6 7 -8 16 -4 19 10 11 17 -1 19 -33z m-339 15 c0 -8 -4 -15 -9 -15 -4 0
-8 7 -8 15 0 8 4 15 8 15 5 0 9 -7 9 -15z m40 9 c-3 -3 -12 -4 -19 -1 -8 3 -5
6 6 6 11 1 17 -2 13 -5z m30 -16 c-3 -8 -6 -5 -6 6 -1 11 2 17 5 13 3 -3 4
-12 1 -19z m50 16 c-3 -3 -12 -4 -19 -1 -8 3 -5 6 6 6 11 1 17 -2 13 -5z
m-197 -14 c0 -5 -4 -10 -10 -10 -5 0 -10 5 -10 10 0 6 5 10 10 10 6 0 10 -4
10 -10z m230 0 c0 -5 -4 -10 -10 -10 -5 0 -10 5 -10 10 0 6 5 10 10 10 6 0 10
-4 10 -10z m160 -6 c0 -2 -7 -4 -15 -4 -8 0 -15 4 -15 10 0 5 7 7 15 4 8 -4
15 -8 15 -10z m59 -13 c-15 -5 -22 6 -14 19 6 9 10 9 16 -1 5 -8 4 -15 -2 -18z
m71 19 c0 -5 -5 -10 -11 -10 -5 0 -7 5 -4 10 3 6 8 10 11 10 2 0 4 -4 4 -10z
m-480 -21 c0 -5 -4 -9 -10 -9 -5 0 -10 7 -10 16 0 8 5 12 10 9 6 -3 10 -10 10
-16z m80 7 c0 -3 -4 -8 -10 -11 -5 -3 -10 -1 -10 4 0 6 5 11 10 11 6 0 10 -2
10 -4z m147 -2 c-3 -3 -12 -4 -19 -1 -8 3 -5 6 6 6 11 1 17 -2 13 -5z m73 -4
c0 -5 -4 -10 -10 -10 -5 0 -10 5 -10 10 0 6 5 10 10 10 6 0 10 -4 10 -10z
m147 -10 c2 -22 -10 -24 -42 -9 -19 9 -18 9 3 5 14 -3 22 1 22 10 0 22 16 16
17 -6z m-517 6 c0 -11 -19 -15 -25 -6 -3 5 1 10 9 10 9 0 16 -2 16 -4z m255
-6 c3 -5 1 -10 -4 -10 -6 0 -11 5 -11 10 0 6 2 10 4 10 3 0 8 -4 11 -10z m79
-11 c-3 -5 -10 -7 -15 -3 -5 3 -7 10 -3 15 3 5 10 7 15 3 5 -3 7 -10 3 -15z
m-224 1 c0 -5 -4 -10 -10 -10 -5 0 -10 5 -10 10 0 6 5 10 10 10 6 0 10 -4 10
-10z m77 4 c-3 -3 -12 -4 -19 -1 -8 3 -5 6 6 6 11 1 17 -2 13 -5z m-147 -8 c0
-11 -19 -15 -25 -6 -3 5 1 10 9 10 9 0 16 -2 16 -4z m105 -37 c1 -25 -3 -29
-25 -28 -15 1 -18 3 -8 6 20 5 31 30 17 38 -5 4 -7 11 -3 16 9 16 18 1 19 -32z
m229 26 c3 -9 0 -15 -9 -15 -8 0 -15 7 -15 15 0 8 4 15 9 15 5 0 11 -7 15 -15z
m61 4 c19 -9 18 -9 -2 -5 -22 4 -27 -3 -24 -31 1 -7 -5 -13 -13 -13 -12 0 -14
5 -6 24 6 17 5 26 -3 30 -7 2 -3 4 8 5 11 0 29 -5 40 -10z m-465 -9 c0 -5 -4
-10 -10 -10 -5 0 -10 5 -10 10 0 6 5 10 10 10 6 0 10 -4 10 -10z m216 -5 c-2
-14 -16 -22 -16 -10 0 3 0 10 0 15 0 6 4 10 9 10 5 0 8 -7 7 -15z m41 9 c-3
-3 -12 -4 -19 -1 -8 3 -5 6 6 6 11 1 17 -2 13 -5z m68 -24 c0 -16 -4 -30 -10
-30 -5 0 -10 14 -10 30 0 17 5 30 10 30 6 0 11 -13 10 -30z m185 10 c0 -11 -4
-20 -8 -20 -4 0 -8 9 -9 20 -1 11 2 20 8 20 5 0 9 -9 9 -20z m100 10 c0 -5 -2
-10 -4 -10 -3 0 -8 5 -11 10 -3 6 -1 10 4 10 6 0 11 -4 11 -10z m-503 -6 c-3
-3 -12 -4 -19 -1 -8 3 -5 6 6 6 11 1 17 -2 13 -5z m252 -23 c-15 -5 -22 6 -14
19 6 9 10 9 16 -1 5 -8 4 -15 -2 -18z m-319 15 c0 -11 -19 -15 -25 -6 -3 5 1
10 9 10 9 0 16 -2 16 -4z m100 -6 c0 -5 -4 -10 -10 -10 -5 0 -10 5 -10 10 0 6
5 10 10 10 6 0 10 -4 10 -10z m146 1 c-3 -5 -15 -7 -26 -4 -28 7 -25 13 6 13
14 0 23 -4 20 -9z m188 -6 c-4 -8 -9 -15 -13 -15 -4 0 -8 7 -8 15 0 8 6 15 13
15 8 0 11 -6 8 -15z m106 6 c0 -6 -4 -12 -8 -15 -5 -3 -9 1 -9 9 0 8 4 15 9
15 4 0 8 -4 8 -9z m-35 -11 c3 -5 1 -10 -4 -10 -6 0 -11 5 -11 10 0 6 2 10 4
10 3 0 8 -4 11 -10z m-290 -10 c-3 -5 -10 -10 -16 -10 -5 0 -9 5 -9 10 0 6 7
10 16 10 8 0 12 -4 9 -10z m-145 -10 c0 -5 -10 -10 -22 -10 -19 0 -20 2 -8 10
19 13 30 13 30 0z m104 -22 c-9 -14 -23 2 -17 18 4 12 8 13 14 3 4 -7 5 -17 3
-21z m186 19 c0 -5 -9 -7 -21 -4 -15 4 -19 2 -15 -9 3 -8 0 -14 -7 -14 -7 0
-13 9 -13 19 0 15 7 19 28 19 15 -1 28 -5 28 -11z m110 3 c0 -5 -2 -10 -4 -10
-3 0 -8 5 -11 10 -3 6 -1 10 4 10 6 0 11 -4 11 -10z m-47 -41 c-6 -6 -9 -1 -7
13 3 33 6 36 11 14 3 -10 1 -22 -4 -27z m-318 21 c3 -5 -1 -10 -10 -10 -9 0
-13 5 -10 10 3 6 8 10 10 10 2 0 7 -4 10 -10z m31 -10 c0 -11 -4 -20 -8 -20
-10 0 -11 24 -1 33 9 9 9 10 9 -13z m114 10 c0 -12 -8 -12 -35 0 -18 8 -17 9
8 9 15 1 27 -3 27 -9z m40 6 c0 -3 -4 -8 -10 -11 -5 -3 -10 -1 -10 4 0 6 5 11
10 11 6 0 10 -2 10 -4z m67 -27 c2 -17 -2 -20 -18 -16 -15 4 -19 2 -15 -9 3
-8 0 -14 -7 -14 -7 0 -13 9 -14 21 -2 17 2 20 22 15 19 -5 23 -3 19 9 -4 8 -2
15 3 15 5 0 9 -9 10 -21z m38 11 c3 -5 -1 -10 -10 -10 -9 0 -13 5 -10 10 3 6
8 10 10 10 2 0 7 -4 10 -10z m105 0 c0 -5 -4 -10 -10 -10 -5 0 -10 5 -10 10 0
6 5 10 10 10 6 0 10 -4 10 -10z m-285 -10 c-3 -5 -10 -10 -16 -10 -5 0 -9 5
-9 10 0 6 7 10 16 10 8 0 12 -4 9 -10z m-135 -4 c0 -3 -4 -8 -10 -11 -5 -3
-10 -1 -10 4 0 6 5 11 10 11 6 0 10 -2 10 -4z m207 -2 c-3 -3 -12 -4 -19 -1
-8 3 -5 6 6 6 11 1 17 -2 13 -5z m178 -4 c3 -5 2 -10 -4 -10 -5 0 -13 5 -16
10 -3 6 -2 10 4 10 5 0 13 -4 16 -10z m-69 -25 c1 -16 -3 -24 -10 -22 -17 6
-15 47 2 47 4 0 8 -11 8 -25z m-286 5 c0 -5 -4 -10 -10 -10 -5 0 -10 5 -10 10
0 6 5 10 10 10 6 0 10 -4 10 -10z m66 1 c-3 -5 -15 -7 -26 -4 -28 7 -25 13 6
13 14 0 23 -4 20 -9z m81 3 c-3 -3 -12 -4 -19 -1 -8 3 -5 6 6 6 11 1 17 -2 13
-5z m33 2 c0 -3 -4 -8 -10 -11 -5 -3 -10 -1 -10 4 0 6 5 11 10 11 6 0 10 -2
10 -4z m140 -6 c0 -5 -4 -10 -10 -10 -5 0 -10 5 -10 10 0 6 5 10 10 10 6 0 10
-4 10 -10z m-70 -10 c0 -5 -4 -10 -10 -10 -5 0 -10 5 -10 10 0 6 5 10 10 10 6
0 10 -4 10 -10z m-215 -10 c3 -5 -1 -10 -10 -10 -9 0 -13 5 -10 10 3 6 8 10
10 10 2 0 7 -4 10 -10z m70 0 c-3 -5 -10 -10 -16 -10 -5 0 -9 5 -9 10 0 6 7
10 16 10 8 0 12 -4 9 -10z m35 0 c0 -5 -5 -10 -11 -10 -5 0 -7 5 -4 10 3 6 8
10 11 10 2 0 4 -4 4 -10z m36 -15 c-4 -24 -13 -27 -19 -5 -3 13 0 20 8 20 7 0
12 -7 11 -15z m73 -1 c3 -3 -1 -10 -9 -17 -10 -9 -11 -9 -6 1 7 12 -5 16 -33
13 -7 -2 -10 3 -6 9 6 9 41 5 54 -6z m101 6 c0 -5 -4 -10 -10 -10 -5 0 -10 5
-10 10 0 6 5 10 10 10 6 0 10 -4 10 -10z m-280 -14 c0 -11 -19 -15 -25 -6 -3
5 1 10 9 10 9 0 16 -2 16 -4z m37 -2 c-3 -3 -12 -4 -19 -1 -8 3 -5 6 6 6 11 1
17 -2 13 -5z m38 -4 c-3 -5 -10 -10 -16 -10 -5 0 -9 5 -9 10 0 6 7 10 16 10 8
0 12 -4 9 -10z m170 0 c3 -5 1 -10 -4 -10 -6 0 -11 5 -11 10 0 6 2 10 4 10 3
0 8 -4 11 -10z m-105 -20 c-6 -11 -12 -20 -13 -20 -2 0 -3 9 -3 20 0 11 6 20
13 20 11 0 11 -5 3 -20z m-100 0 c0 -5 -7 -10 -15 -10 -8 0 -15 5 -15 10 0 6
7 10 15 10 8 0 15 -4 15 -10z m170 0 c0 -5 -2 -10 -4 -10 -3 0 -8 5 -11 10 -3
6 -1 10 4 10 6 0 11 -4 11 -10z m-245 -10 c-3 -5 -12 -7 -20 -3 -21 7 -19 13
6 13 11 0 18 -4 14 -10z m145 0 c0 -5 -4 -10 -9 -10 -6 0 -13 5 -16 10 -3 6 1
10 9 10 9 0 16 -4 16 -10z m70 -10 c0 -5 -4 -10 -9 -10 -6 0 -13 5 -16 10 -3
6 1 10 9 10 9 0 16 -4 16 -10z m-180 -10 c0 -5 -4 -10 -10 -10 -5 0 -10 5 -10
10 0 6 5 10 10 10 6 0 10 -4 10 -10z m40 6 c0 -3 -4 -8 -10 -11 -5 -3 -10 -1
-10 4 0 6 5 11 10 11 6 0 10 -2 10 -4z m35 -6 c-3 -5 -10 -10 -16 -10 -5 0 -9
5 -9 10 0 6 7 10 16 10 8 0 12 -4 9 -10z m165 0 c0 -5 -5 -10 -11 -10 -5 0 -7
5 -4 10 3 6 8 10 11 10 2 0 4 -4 4 -10z m-97 -6 c7 -7 -2 -34 -12 -34 -4 0 -7
9 -7 20 0 20 7 25 19 14z m62 -14 c3 -5 1 -10 -4 -10 -6 0 -11 5 -11 10 0 6 2
10 4 10 3 0 8 -4 11 -10z m-169 -9 c-3 -5 -15 -7 -26 -4 -28 7 -25 13 6 13 14
0 23 -4 20 -9z m74 -1 c0 -5 -4 -10 -10 -10 -5 0 -10 5 -10 10 0 6 5 10 10 10
6 0 10 -4 10 -10z m65 -10 c3 -5 2 -10 -4 -10 -5 0 -13 5 -16 10 -3 6 -2 10 4
10 5 0 13 -4 16 -10z m-175 -10 c0 -5 -4 -10 -10 -10 -5 0 -10 5 -10 10 0 6 5
10 10 10 6 0 10 -4 10 -10z m75 0 c3 -5 -1 -10 -10 -10 -9 0 -13 5 -10 10 3 6
8 10 10 10 2 0 7 -4 10 -10z m65 -10 c0 -5 -4 -10 -10 -10 -5 0 -10 5 -10 10
0 6 5 10 10 10 6 0 10 -4 10 -10z m60 -10 c0 -5 -5 -10 -11 -10 -5 0 -7 5 -4
10 3 6 8 10 11 10 2 0 4 -4 4 -10z m-230 -4 c0 -3 -4 -8 -10 -11 -5 -3 -10 -1
-10 4 0 6 5 11 10 11 6 0 10 -2 10 -4z m65 -6 c-3 -5 -10 -10 -16 -10 -5 0 -9
5 -9 10 0 6 7 10 16 10 8 0 12 -4 9 -10z m35 0 c0 -5 -5 -10 -11 -10 -5 0 -7
5 -4 10 3 6 8 10 11 10 2 0 4 -4 4 -10z m40 -4 c0 -8 -5 -18 -12 -22 -7 -4 -8
-3 -4 4 4 7 2 12 -4 12 -6 0 -8 5 -5 10 9 15 25 12 25 -4z m-115 -16 c3 -5 1
-10 -4 -10 -6 0 -11 5 -11 10 0 6 2 10 4 10 3 0 8 -4 11 -10z m41 -15 c-2 -14
-16 -22 -16 -10 0 3 0 10 0 15 0 6 4 10 9 10 5 0 8 -7 7 -15z m38 0 c-4 -8 -9
-15 -13 -15 -4 0 -8 7 -8 15 0 8 6 15 13 15 8 0 11 -6 8 -15z m-109 -5 c3 -5
1 -10 -4 -10 -6 0 -11 5 -11 10 0 6 2 10 4 10 3 0 8 -4 11 -10z m175 -5 c0 -8
-2 -15 -4 -15 -2 0 -6 7 -10 15 -3 8 -1 15 4 15 6 0 10 -7 10 -15z m-30 -5 c0
-5 -7 -10 -16 -10 -8 0 -12 5 -9 10 3 6 10 10 16 10 5 0 9 -4 9 -10z m-158
-32 c-7 -7 -12 -8 -12 -2 0 6 3 14 7 17 3 4 9 5 12 2 2 -3 -1 -11 -7 -17z m58
7 c0 -8 -4 -15 -10 -15 -5 0 -10 7 -10 15 0 8 5 15 10 15 6 0 10 -7 10 -15z
m30 -5 c0 -5 -2 -10 -4 -10 -3 0 -8 5 -11 10 -3 6 -1 10 4 10 6 0 11 -4 11
-10z m30 0 c0 -5 -4 -10 -10 -10 -5 0 -10 5 -10 10 0 6 5 10 10 10 6 0 10 -4
10 -10z m50 -10 c0 -5 -2 -10 -4 -10 -3 0 -8 5 -11 10 -3 6 -1 10 4 10 6 0 11
-4 11 -10z m-184 -25 c-23 -17 -36 -19 -36 -6 0 5 10 12 23 14 12 2 24 5 27 5
3 1 -4 -5 -14 -13z m44 11 c0 -3 -4 -8 -10 -11 -5 -3 -10 -1 -10 4 0 6 5 11
10 11 6 0 10 -2 10 -4z m60 0 c0 -11 -19 -15 -25 -6 -3 5 1 10 9 10 9 0 16 -2
16 -4z m50 -11 c0 -8 -2 -15 -4 -15 -2 0 -6 7 -10 15 -3 8 -1 15 4 15 6 0 10
-7 10 -15z m-220 -5 c0 -5 -5 -10 -11 -10 -5 0 -7 5 -4 10 3 6 8 10 11 10 2 0
4 -4 4 -10z m280 0 c0 -5 -2 -10 -4 -10 -3 0 -8 5 -11 10 -3 6 -1 10 4 10 6 0
11 -4 11 -10z m-200 -19 c0 -6 -4 -13 -10 -16 -5 -3 -10 1 -10 9 0 9 5 16 10
16 6 0 10 -4 10 -9z m50 -1 c0 -5 -4 -10 -10 -10 -5 0 -10 5 -10 10 0 6 5 10
10 10 6 0 10 -4 10 -10z m30 0 c0 -5 -2 -10 -4 -10 -3 0 -8 5 -11 10 -3 6 -1
10 4 10 6 0 11 -4 11 -10z m51 0 c5 0 9 -4 9 -9 0 -5 -8 -8 -17 -7 -12 1 -17
-5 -15 -18 2 -10 -1 -15 -6 -12 -5 3 -9 17 -9 31 0 19 4 25 14 21 8 -3 19 -6
24 -6z m39 -6 c0 -8 -5 -12 -10 -9 -6 4 -8 11 -5 16 9 14 15 11 15 -7z m-270
-1 c0 -5 -9 -21 -20 -38 -11 -16 -20 -25 -20 -20 0 6 7 20 15 31 8 12 11 24 8
28 -3 3 -1 6 5 6 7 0 12 -3 12 -7z m55 -3 c3 -5 1 -10 -4 -10 -6 0 -11 5 -11
10 0 6 2 10 4 10 3 0 8 -4 11 -10z m90 -20 c3 -5 1 -10 -4 -10 -6 0 -11 5 -11
10 0 6 2 10 4 10 3 0 8 -4 11 -10z m35 -11 c0 -5 -4 -9 -10 -9 -5 0 -10 7 -10
16 0 8 5 12 10 9 6 -3 10 -10 10 -16z m-136 -10 c-3 -5 -10 -7 -15 -3 -5 3 -7
10 -3 15 3 5 10 7 15 3 5 -3 7 -10 3 -15z m76 11 c0 -5 -4 -10 -10 -10 -5 0
-10 5 -10 10 0 6 5 10 10 10 6 0 10 -4 10 -10z m120 0 c0 -5 -4 -10 -10 -10
-5 0 -10 5 -10 10 0 6 5 10 10 10 6 0 10 -4 10 -10z m60 0 c0 -5 -4 -10 -10
-10 -5 0 -10 5 -10 10 0 6 5 10 10 10 6 0 10 -4 10 -10z m-300 -30 c0 -5 -4
-10 -10 -10 -5 0 -10 5 -10 10 0 6 5 10 10 10 6 0 10 -4 10 -10z m90 2 c0 -13
-12 -22 -22 -16 -10 6 -1 24 13 24 5 0 9 -4 9 -8z m50 -2 c0 -5 -4 -10 -10
-10 -5 0 -10 5 -10 10 0 6 5 10 10 10 6 0 10 -4 10 -10z m30 0 c0 -5 -2 -10
-4 -10 -3 0 -8 5 -11 10 -3 6 -1 10 4 10 6 0 11 -4 11 -10z m40 0 c0 -5 -4
-10 -9 -10 -6 0 -13 5 -16 10 -3 6 1 10 9 10 9 0 16 -4 16 -10z m60 1 c0 -6
-4 -13 -10 -16 -5 -3 -10 1 -10 9 0 9 5 16 10 16 6 0 10 -4 10 -9z m50 -7 c0
-8 -5 -12 -10 -9 -6 4 -8 11 -5 16 9 14 15 11 15 -7z m-290 -4 c0 -5 -2 -10
-4 -10 -3 0 -8 5 -11 10 -3 6 -1 10 4 10 6 0 11 -4 11 -10z m256 -38 c-11 -10
-15 4 -8 28 l7 25 3 -23 c2 -13 1 -26 -2 -30z m79 38 c3 -5 1 -10 -4 -10 -6 0
-11 5 -11 10 0 6 2 10 4 10 3 0 8 -4 11 -10z m-405 -10 c0 -5 -4 -10 -10 -10
-5 0 -10 5 -10 10 0 6 5 10 10 10 6 0 10 -4 10 -10z m146 -27 c-10 -10 -19 5
-10 18 6 11 8 11 12 0 2 -7 1 -15 -2 -18z m64 12 c0 -8 -4 -15 -10 -15 -5 0
-10 7 -10 15 0 8 5 15 10 15 6 0 10 -7 10 -15z m30 -6 c0 -6 -4 -7 -10 -4 -5
3 -10 11 -10 16 0 6 5 7 10 4 6 -3 10 -11 10 -16z m30 5 c0 -8 -5 -12 -10 -9
-6 4 -8 11 -5 16 9 14 15 11 15 -7z m-210 -4 c0 -5 -4 -10 -10 -10 -5 0 -10 5
-10 10 0 6 5 10 10 10 6 0 10 -4 10 -10z m60 -1 c0 -4 -7 -9 -15 -13 -9 -3
-15 0 -15 8 0 7 7 13 15 13 8 0 15 -4 15 -8z m60 1 c0 -5 -2 -10 -4 -10 -3 0
-8 5 -11 10 -3 6 -1 10 4 10 6 0 11 -4 11 -10z m120 -15 c0 -14 -4 -25 -9 -25
-5 0 -8 11 -7 25 1 33 16 33 16 0z m-315 5 c3 -5 1 -10 -4 -10 -6 0 -11 5 -11
10 0 6 2 10 4 10 3 0 8 -4 11 -10z m35 -10 c0 -5 -4 -10 -10 -10 -5 0 -10 5
-10 10 0 6 5 10 10 10 6 0 10 -4 10 -10z m25 -10 c3 -5 1 -10 -4 -10 -6 0 -11
5 -11 10 0 6 2 10 4 10 3 0 8 -4 11 -10z m35 -5 c0 -8 -4 -15 -10 -15 -5 0
-10 7 -10 15 0 8 5 15 10 15 6 0 10 -7 10 -15z m37 -12 c-3 -3 -11 -2 -17 2
-9 6 -9 10 1 16 14 8 27 -7 16 -18z m28 17 c3 -5 1 -10 -4 -10 -6 0 -11 5 -11
10 0 6 2 10 4 10 3 0 8 -4 11 -10z m35 0 c0 -5 -4 -10 -10 -10 -5 0 -10 5 -10
10 0 6 5 10 10 10 6 0 10 -4 10 -10z m25 0 c3 -5 1 -10 -4 -10 -6 0 -11 5 -11
10 0 6 2 10 4 10 3 0 8 -4 11 -10z m35 0 c0 -5 -4 -10 -10 -10 -5 0 -10 5 -10
10 0 6 5 10 10 10 6 0 10 -4 10 -10z m25 0 c3 -5 1 -10 -4 -10 -6 0 -11 5 -11
10 0 6 2 10 4 10 3 0 8 -4 11 -10z m82 -12 c-3 -8 -6 -5 -6 6 -1 11 2 17 5 13
3 -3 4 -12 1 -19z m-372 2 c3 -5 1 -10 -4 -10 -6 0 -11 5 -11 10 0 6 2 10 4
10 3 0 8 -4 11 -10z m450 0 c3 -5 1 -10 -4 -10 -6 0 -11 5 -11 10 0 6 2 10 4
10 3 0 8 -4 11 -10z m-395 -20 c0 -5 -4 -10 -10 -10 -5 0 -10 5 -10 10 0 6 5
10 10 10 6 0 10 -4 10 -10z m120 -11 c0 -5 -4 -9 -10 -9 -5 0 -10 7 -10 16 0
8 5 12 10 9 6 -3 10 -10 10 -16z m54 0 c-3 -5 -10 -7 -15 -3 -5 3 -7 10 -3 15
3 5 10 7 15 3 5 -3 7 -10 3 -15z m23 -1 c-3 -8 -6 -5 -6 6 -1 11 2 17 5 13 3
-3 4 -12 1 -19z m37 1 c-3 -5 -10 -7 -15 -3 -5 3 -7 10 -3 15 3 5 10 7 15 3 5
-3 7 -10 3 -15z m60 0 c-3 -5 -10 -7 -15 -3 -5 3 -7 10 -3 15 3 5 10 7 15 3 5
-3 7 -10 3 -15z m-254 1 c0 -5 -4 -10 -10 -10 -5 0 -10 5 -10 10 0 6 5 10 10
10 6 0 10 -4 10 -10z m310 6 c0 -3 -4 -8 -10 -11 -5 -3 -10 -1 -10 4 0 6 5 11
10 11 6 0 10 -2 10 -4z m-390 -16 c0 -5 -5 -10 -11 -10 -5 0 -7 5 -4 10 3 6 8
10 11 10 2 0 4 -4 4 -10z m110 6 c0 -3 -4 -8 -10 -11 -5 -3 -10 -1 -10 4 0 6
5 11 10 11 6 0 10 -2 10 -4z m340 -6 c0 -5 -2 -10 -4 -10 -3 0 -8 5 -11 10 -3
6 -1 10 4 10 6 0 11 -4 11 -10z m-385 -20 c3 -5 -1 -10 -9 -10 -9 0 -16 5 -16
10 0 6 4 10 9 10 6 0 13 -4 16 -10z m60 1 c3 -5 1 -12 -5 -16 -5 -3 -10 1 -10
9 0 18 6 21 15 7z m85 -3 c0 -5 -4 -7 -9 -3 -5 3 -12 1 -16 -5 -4 -6 -11 -8
-16 -5 -17 11 -9 23 16 23 14 0 25 -5 25 -10z m30 2 c0 -5 -4 -10 -10 -10 -5
0 -10 5 -10 10 0 6 5 10 10 10 6 0 10 -4 10 -10z m30 0 c0 -5 -2 -10 -4 -10
-3 0 -8 5 -11 10 -3 6 -1 10 4 10 6 0 11 -4 11 -10z m30 -6 c0 -8 -4 -12 -10
-9 -5 3 -10 10 -10 16 0 5 5 9 10 9 6 0 10 -7 10 -16z m60 6 c0 -5 -4 -10 -10
-10 -5 0 -10 5 -10 10 0 6 5 10 10 10 6 0 10 -4 10 -10z m100 -10 c8 -5 11
-10 5 -10 -5 0 -17 5 -25 10 -8 5 -10 10 -5 10 6 0 17 -5 25 -10z m-440 -10
c0 -5 -4 -10 -10 -10 -5 0 -10 5 -10 10 0 6 5 10 10 10 6 0 10 -4 10 -10z m30
-10 c0 -5 -2 -10 -4 -10 -3 0 -8 5 -11 10 -3 6 -1 10 4 10 6 0 11 -4 11 -10z
m160 -11 c0 -5 -4 -9 -10 -9 -5 0 -10 7 -10 16 0 8 5 12 10 9 6 -3 10 -10 10
-16z m30 0 c0 -6 -4 -7 -10 -4 -5 3 -10 11 -10 16 0 6 5 7 10 4 6 -3 10 -11
10 -16z m30 5 c0 -8 -5 -12 -10 -9 -6 4 -8 11 -5 16 9 14 15 11 15 -7z m60 0
c0 -8 -5 -12 -10 -9 -6 4 -8 11 -5 16 9 14 15 11 15 -7z m50 0 c0 -8 -5 -12
-10 -9 -6 4 -8 11 -5 16 9 14 15 11 15 -7z m-400 -10 c0 -8 -5 -12 -10 -9 -6
4 -8 11 -5 16 9 14 15 11 15 -7z m117 -6 c-3 -8 -6 -5 -6 6 -1 11 2 17 5 13 3
-3 4 -12 1 -19z m53 11 c0 -5 -9 -9 -20 -9 -11 0 -20 4 -20 8 0 4 9 8 20 9 11
1 20 -2 20 -8z m30 1 c0 -5 -2 -10 -4 -10 -3 0 -8 5 -11 10 -3 6 -1 10 4 10 6
0 11 -4 11 -10z m120 0 c0 -5 -2 -10 -4 -10 -3 0 -8 5 -11 10 -3 6 -1 10 4 10
6 0 11 -4 11 -10z m-295 -10 c3 -5 1 -10 -4 -10 -6 0 -11 5 -11 10 0 6 2 10 4
10 3 0 8 -4 11 -10z m35 -10 c0 -5 -4 -10 -10 -10 -5 0 -10 5 -10 10 0 6 5 10
10 10 6 0 10 -4 10 -10z m140 -15 c0 -8 -4 -15 -10 -15 -5 0 -10 7 -10 15 0 8
5 15 10 15 6 0 10 -7 10 -15z m25 5 c3 -5 1 -10 -4 -10 -6 0 -11 5 -11 10 0 6
2 10 4 10 3 0 8 -4 11 -10z m35 -6 c0 -8 -4 -12 -10 -9 -5 3 -10 10 -10 16 0
5 5 9 10 9 6 0 10 -7 10 -16z m30 6 c0 -5 -4 -10 -10 -10 -5 0 -10 5 -10 10 0
6 5 10 10 10 6 0 10 -4 10 -10z m30 0 c0 -5 -4 -10 -10 -10 -5 0 -10 5 -10 10
0 6 5 10 10 10 6 0 10 -4 10 -10z m60 6 c0 -3 -4 -8 -10 -11 -5 -3 -10 -1 -10
4 0 6 5 11 10 11 6 0 10 -2 10 -4z m-360 -27 c0 -6 -4 -7 -10 -4 -5 3 -10 11
-10 16 0 6 5 7 10 4 6 -3 10 -11 10 -16z m55 -9 c3 -5 1 -10 -4 -10 -6 0 -11
5 -11 10 0 6 2 10 4 10 3 0 8 -4 11 -10z m155 -11 c0 -5 -4 -9 -10 -9 -5 0
-10 7 -10 16 0 8 5 12 10 9 6 -3 10 -10 10 -16z m60 6 c0 -8 -4 -15 -10 -15
-5 0 -10 7 -10 15 0 8 5 15 10 15 6 0 10 -7 10 -15z m60 6 c0 -6 -4 -13 -10
-16 -5 -3 -10 1 -10 9 0 9 5 16 10 16 6 0 10 -4 10 -9z m50 -7 c0 -8 -5 -12
-10 -9 -6 4 -8 11 -5 16 9 14 15 11 15 -7z m-420 -4 c0 -5 -4 -10 -10 -10 -5
0 -10 5 -10 10 0 6 5 10 10 10 6 0 10 -4 10 -10z m190 1 c0 -13 -12 -20 -26
-14 -20 8 -17 19 6 20 11 1 20 -2 20 -6z m30 -1 c0 -5 -4 -10 -10 -10 -5 0
-10 5 -10 10 0 6 5 10 10 10 6 0 10 -4 10 -10z m55 0 c3 -5 1 -10 -4 -10 -6 0
-11 5 -11 10 0 6 2 10 4 10 3 0 8 -4 11 -10z m-215 -21 c0 -6 -4 -7 -10 -4 -5
3 -10 11 -10 16 0 6 5 7 10 4 6 -3 10 -11 10 -16z m80 11 c0 -5 -5 -10 -11
-10 -5 0 -7 5 -4 10 3 6 8 10 11 10 2 0 4 -4 4 -10z m250 -16 c0 -8 -5 -12
-10 -9 -6 4 -8 11 -5 16 9 14 15 11 15 -7z m47 -6 c-3 -8 -6 -5 -6 6 -1 11 2
17 5 13 3 -3 4 -12 1 -19z m-217 -9 c0 -5 -4 -9 -10 -9 -5 0 -10 7 -10 16 0 8
5 12 10 9 6 -3 10 -10 10 -16z m17 -1 c-3 -8 -6 -5 -6 6 -1 11 2 17 5 13 3 -3
4 -12 1 -19z m37 1 c-3 -5 -10 -7 -15 -3 -5 3 -7 10 -3 15 3 5 10 7 15 3 5 -3
7 -10 3 -15z m86 13 c0 -4 -9 -8 -20 -9 -11 -1 -20 2 -20 8 0 5 9 9 20 9 11 0
20 -4 20 -8z m-345 -12 c3 -5 1 -10 -4 -10 -6 0 -11 5 -11 10 0 6 2 10 4 10 3
0 8 -4 11 -10z m145 0 c0 -5 -5 -10 -11 -10 -5 0 -7 5 -4 10 3 6 8 10 11 10 2
0 4 -4 4 -10z m-85 -10 c3 -5 1 -10 -4 -10 -6 0 -11 5 -11 10 0 6 2 10 4 10 3
0 8 -4 11 -10z m232 -26 c-9 -9 -28 6 -21 18 4 6 10 6 17 -1 6 -6 8 -13 4 -17z
m53 10 c0 -8 -5 -12 -10 -9 -6 4 -8 11 -5 16 9 14 15 11 15 -7z m60 6 c0 -5
-4 -10 -10 -10 -5 0 -10 5 -10 10 0 6 5 10 10 10 6 0 10 -4 10 -10z m50 0 c0
-5 -4 -10 -10 -10 -5 0 -10 5 -10 10 0 6 5 10 10 10 6 0 10 -4 10 -10z m-285
-9 c3 -5 1 -12 -5 -16 -5 -3 -10 1 -10 9 0 18 6 21 15 7z m30 -1 c3 -5 1 -10
-4 -10 -6 0 -11 5 -11 10 0 6 2 10 4 10 3 0 8 -4 11 -10z m55 2 c0 -4 -9 -8
-20 -9 -11 -1 -20 2 -20 5 0 4 9 8 20 9 11 1 20 -2 20 -5z m-235 -12 c3 -5 1
-10 -4 -10 -6 0 -11 5 -11 10 0 6 2 10 4 10 3 0 8 -4 11 -10z m105 6 c0 -3 -4
-8 -10 -11 -5 -3 -10 -1 -10 4 0 6 5 11 10 11 6 0 10 -2 10 -4z m250 -22 c0
-8 -5 -12 -10 -9 -6 4 -8 11 -5 16 9 14 15 11 15 -7z m47 -6 c-3 -8 -6 -5 -6
6 -1 11 2 17 5 13 3 -3 4 -12 1 -19z m50 0 c-3 -8 -6 -5 -6 6 -1 11 2 17 5 13
3 -3 4 -12 1 -19z m-267 -9 c0 -5 -7 -9 -15 -9 -9 0 -12 6 -9 15 6 15 24 11
24 -6z m54 0 c-3 -5 -10 -7 -15 -3 -5 3 -7 10 -3 15 3 5 10 7 15 3 5 -3 7 -10
3 -15z m86 9 c0 -5 -4 -7 -9 -3 -5 3 -12 1 -16 -5 -4 -6 -11 -8 -16 -5 -17 11
-9 23 16 23 14 0 25 -5 25 -10z m-200 -8 c0 -5 -5 -10 -11 -10 -5 0 -7 5 -4
10 3 6 8 10 11 10 2 0 4 -4 4 -10z m310 -16 c0 -8 -5 -12 -10 -9 -6 4 -8 11
-5 16 9 14 15 11 15 -7z m-140 -13 c0 -4 -10 -7 -22 -5 -31 3 -30 3 -24 13 7
10 46 3 46 -8z m30 3 c0 -8 -5 -12 -10 -9 -6 4 -8 11 -5 16 9 14 15 11 15 -7z
m60 6 c0 -5 -4 -10 -10 -10 -5 0 -10 5 -10 10 0 6 5 10 10 10 6 0 10 -4 10
-10z m-236 -21 c-3 -5 -10 -7 -15 -3 -5 3 -7 10 -3 15 3 5 10 7 15 3 5 -3 7
-10 3 -15z m56 5 c0 -8 -4 -12 -10 -9 -5 3 -10 10 -10 16 0 5 5 9 10 9 6 0 10
-7 10 -16z m30 6 c0 -5 -2 -10 -4 -10 -3 0 -8 5 -11 10 -3 6 -1 10 4 10 6 0
11 -4 11 -10z m120 -16 c0 -14 -4 -23 -9 -20 -5 3 -7 15 -4 26 7 28 13 25 13
-6z m55 -3 c3 -5 1 -12 -5 -16 -5 -3 -10 1 -10 9 0 18 6 21 15 7z m-231 -16
c3 -9 0 -15 -9 -15 -9 0 -12 6 -9 15 4 8 7 15 9 15 2 0 5 -7 9 -15z m57 2 c-1
-12 -15 -9 -19 4 -3 6 1 10 8 8 6 -3 11 -8 11 -12z m26 -9 c-3 -8 -6 -5 -6 6
-1 11 2 17 5 13 3 -3 4 -12 1 -19z m33 6 c0 -8 -4 -12 -10 -9 -5 3 -10 10 -10
16 0 5 5 9 10 9 6 0 10 -7 10 -16z m30 6 c0 -5 -2 -10 -4 -10 -3 0 -8 5 -11
10 -3 6 -1 10 4 10 6 0 11 -4 11 -10z m60 -21 c0 -10 -4 -19 -9 -19 -5 0 -8
11 -7 24 1 28 16 24 16 -5z m-265 11 c3 -5 1 -10 -4 -10 -6 0 -11 5 -11 10 0
6 2 10 4 10 3 0 8 -4 11 -10z m315 -16 c0 -8 -5 -12 -10 -9 -6 4 -8 11 -5 16
9 14 15 11 15 -7z m47 -6 c-3 -8 -6 -5 -6 6 -1 11 2 17 5 13 3 -3 4 -12 1 -19z
m98 12 c3 -5 1 -10 -4 -10 -6 0 -11 5 -11 10 0 6 2 10 4 10 3 0 8 -4 11 -10z
m-251 -21 c-3 -5 -10 -7 -15 -3 -5 3 -7 10 -3 15 3 5 10 7 15 3 5 -3 7 -10 3
-15z m-180 -10 c-3 -5 -10 -7 -15 -3 -5 3 -7 10 -3 15 3 5 10 7 15 3 5 -3 7
-10 3 -15z m56 11 c0 -5 -4 -10 -10 -10 -5 0 -10 5 -10 10 0 6 5 10 10 10 6 0
10 -4 10 -10z m30 0 c0 -5 -2 -10 -4 -10 -3 0 -8 5 -11 10 -3 6 -1 10 4 10 6
0 11 -4 11 -10z m60 2 c0 -10 -36 -9 -46 1 -4 4 5 7 19 7 15 0 27 -4 27 -8z
m220 -18 c0 -8 -5 -12 -10 -9 -6 4 -8 11 -5 16 9 14 15 11 15 -7z m-160 -10
c0 -8 -5 -12 -10 -9 -6 4 -8 11 -5 16 9 14 15 11 15 -7z m60 0 c0 -8 -4 -12
-10 -9 -5 3 -10 10 -10 16 0 5 5 9 10 9 6 0 10 -7 10 -16z m50 6 c0 -5 -4 -10
-10 -10 -5 0 -10 5 -10 10 0 6 5 10 10 10 6 0 10 -4 10 -10z m100 0 c0 -5 -2
-10 -4 -10 -3 0 -8 5 -11 10 -3 6 -1 10 4 10 6 0 11 -4 11 -10z m-330 -16 c0
-8 -4 -12 -10 -9 -5 3 -10 10 -10 16 0 5 5 9 10 9 6 0 10 -7 10 -16z m30 0 c0
-8 -4 -12 -10 -9 -5 3 -10 10 -10 16 0 5 5 9 10 9 6 0 10 -7 10 -16z m30 0 c0
-8 -4 -12 -10 -9 -5 3 -10 10 -10 16 0 5 5 9 10 9 6 0 10 -7 10 -16z m30 6 c0
-5 -2 -10 -4 -10 -3 0 -8 5 -11 10 -3 6 -1 10 4 10 6 0 11 -4 11 -10z m60 0
c0 -5 -2 -10 -4 -10 -3 0 -8 5 -11 10 -3 6 -1 10 4 10 6 0 11 -4 11 -10z
m-265 -10 c3 -5 1 -10 -4 -10 -6 0 -11 5 -11 10 0 6 2 10 4 10 3 0 8 -4 11
-10z m60 0 c3 -5 -1 -10 -9 -10 -9 0 -16 5 -16 10 0 6 4 10 9 10 6 0 13 -4 16
-10z m315 -16 c0 -8 -4 -12 -10 -9 -5 3 -10 10 -10 16 0 5 5 9 10 9 6 0 10 -7
10 -16z m45 6 c3 -5 1 -10 -4 -10 -6 0 -11 5 -11 10 0 6 2 10 4 10 3 0 8 -4
11 -10z m55 0 c0 -5 -2 -10 -4 -10 -3 0 -8 5 -11 10 -3 6 -1 10 4 10 6 0 11
-4 11 -10z m-266 -21 c-3 -5 -10 -7 -15 -3 -5 3 -7 10 -3 15 3 5 10 7 15 3 5
-3 7 -10 3 -15z m56 11 c0 -5 -4 -10 -10 -10 -5 0 -10 5 -10 10 0 6 5 10 10
10 6 0 10 -4 10 -10z m80 -22 c0 -12 -3 -18 -7 -14 -10 10 -11 46 -1 40 4 -3
8 -15 8 -26z m-315 13 c3 -5 1 -12 -5 -16 -5 -3 -10 1 -10 9 0 18 6 21 15 7z
m55 -3 c0 -4 -9 -8 -20 -8 -11 0 -20 4 -20 8 0 4 9 8 20 8 11 0 20 -4 20 -8z
m30 2 c0 -5 -2 -10 -4 -10 -3 0 -8 5 -11 10 -3 6 -1 10 4 10 6 0 11 -4 11 -10z
m60 1 c0 -10 -39 -11 -45 -2 -2 5 7 9 20 9 14 0 25 -3 25 -7z m217 -23 c-3 -8
-6 -5 -6 6 -1 11 2 17 5 13 3 -3 4 -12 1 -19z m-157 -4 c0 -8 -5 -12 -10 -9
-6 4 -8 11 -5 16 9 14 15 11 15 -7z m60 0 c0 -8 -4 -12 -10 -9 -5 3 -10 10
-10 16 0 5 5 9 10 9 6 0 10 -7 10 -16z m-180 -9 c0 -8 -4 -15 -10 -15 -5 0
-10 7 -10 15 0 8 5 15 10 15 6 0 10 -7 10 -15z m30 -1 c0 -8 -4 -12 -10 -9 -5
3 -10 10 -10 16 0 5 5 9 10 9 6 0 10 -7 10 -16z m30 0 c0 -8 -4 -12 -10 -9 -5
3 -10 10 -10 16 0 5 5 9 10 9 6 0 10 -7 10 -16z m30 6 c0 -5 -2 -10 -4 -10 -3
0 -8 5 -11 10 -3 6 -1 10 4 10 6 0 11 -4 11 -10z m60 -22 c0 -17 -3 -28 -7
-24 -11 10 -11 56 -1 56 4 0 8 -14 8 -32z m-265 12 c3 -5 1 -10 -4 -10 -6 0
-11 5 -11 10 0 6 2 10 4 10 3 0 8 -4 11 -10z m60 0 c3 -5 -1 -10 -9 -10 -9 0
-16 5 -16 10 0 6 4 10 9 10 6 0 13 -4 16 -10z m315 -11 c0 -11 -4 -18 -10 -14
-5 3 -7 12 -3 20 7 21 13 19 13 -6z m50 5 c0 -8 -5 -12 -10 -9 -6 4 -8 11 -5
16 9 14 15 11 15 -7z m47 -6 c-3 -8 -6 -5 -6 6 -1 11 2 17 5 13 3 -3 4 -12 1
-19z m-237 -31 c0 -15 -4 -26 -10 -22 -5 3 -6 13 -3 22 5 12 2 15 -10 10 -9
-3 -19 -2 -21 2 -8 12 0 17 24 17 15 0 20 -7 20 -29z m60 -3 c0 -14 -4 -23 -9
-20 -5 3 -8 17 -8 31 0 13 3 22 8 19 5 -3 9 -16 9 -30z m30 32 c0 -3 -4 -8
-10 -11 -5 -3 -10 -1 -10 4 0 6 5 11 10 11 6 0 10 -2 10 -4z m-303 -28 c-3 -8
-6 -5 -6 6 -1 11 2 17 5 13 3 -3 4 -12 1 -19z m63 13 c0 -6 -4 -13 -10 -16 -5
-3 -10 1 -10 9 0 9 5 16 10 16 6 0 10 -4 10 -9z m30 -1 c0 -5 -2 -10 -4 -10
-3 0 -8 5 -11 10 -3 6 -1 10 4 10 6 0 11 -4 11 -10z m60 1 c0 -4 -11 -8 -25
-9 -14 -1 -25 2 -25 7 0 5 11 9 25 9 14 0 25 -3 25 -7z m280 -16 c0 -8 -2 -15
-4 -15 -2 0 -6 7 -10 15 -3 8 -1 15 4 15 6 0 10 -7 10 -15z m50 5 c0 -5 -2
-10 -4 -10 -3 0 -8 5 -11 10 -3 6 -1 10 4 10 6 0 11 -4 11 -10z m-130 -8 c0
-10 -36 -9 -46 1 -4 4 5 7 19 7 15 0 27 -4 27 -8z m30 -2 c0 -5 -2 -10 -4 -10
-3 0 -8 5 -11 10 -3 6 -1 10 4 10 6 0 11 -4 11 -10z m-290 -15 c0 -8 -4 -15
-10 -15 -5 0 -10 7 -10 15 0 8 5 15 10 15 6 0 10 -7 10 -15z m30 -1 c0 -8 -4
-12 -10 -9 -5 3 -10 10 -10 16 0 5 5 9 10 9 6 0 10 -7 10 -16z m30 0 c0 -8 -4
-12 -10 -9 -5 3 -10 10 -10 16 0 5 5 9 10 9 6 0 10 -7 10 -16z m30 6 c0 -5 -2
-10 -4 -10 -3 0 -8 5 -11 10 -3 6 -1 10 4 10 6 0 11 -4 11 -10z m60 0 c0 -5
-2 -10 -4 -10 -3 0 -8 5 -11 10 -3 6 -1 10 4 10 6 0 11 -4 11 -10z m-265 -10
c3 -5 1 -10 -4 -10 -6 0 -11 5 -11 10 0 6 2 10 4 10 3 0 8 -4 11 -10z m60 0
c3 -5 -1 -10 -9 -10 -9 0 -16 5 -16 10 0 6 4 10 9 10 6 0 13 -4 16 -10z m425
-6 c0 -8 -5 -12 -10 -9 -6 4 -8 11 -5 16 9 14 15 11 15 -7z m-110 -10 c0 -8
-5 -12 -10 -9 -6 4 -8 11 -5 16 9 14 15 11 15 -7z m-170 -10 c0 -8 -5 -12 -10
-9 -6 4 -8 11 -5 16 9 14 15 11 15 -7z m30 0 c0 -8 -5 -12 -10 -9 -6 4 -8 11
-5 16 9 14 15 11 15 -7z m30 0 c0 -8 -4 -12 -10 -9 -5 3 -10 10 -10 16 0 5 5
9 10 9 6 0 10 -7 10 -16z m30 -21 c0 -15 -3 -23 -7 -20 -9 10 -10 56 -1 51 4
-3 8 -17 8 -31z m30 27 c0 -5 -4 -10 -10 -10 -5 0 -10 5 -10 10 0 6 5 10 10
10 6 0 10 -4 10 -10z m-303 -22 c-3 -8 -6 -5 -6 6 -1 11 2 17 5 13 3 -3 4 -12
1 -19z m63 13 c0 -6 -4 -13 -10 -16 -5 -3 -10 1 -10 9 0 9 5 16 10 16 6 0 10
-4 10 -9z m30 -1 c0 -5 -2 -10 -4 -10 -3 0 -8 5 -11 10 -3 6 -1 10 4 10 6 0
11 -4 11 -10z m60 1 c0 -4 -11 -8 -25 -9 -14 -1 -25 2 -25 7 0 5 11 9 25 9 14
0 25 -3 25 -7z m230 -17 c0 -8 -5 -12 -10 -9 -6 4 -8 11 -5 16 9 14 15 11 15
-7z m-50 2 c0 -3 -4 -8 -10 -11 -5 -3 -10 -1 -10 4 0 6 5 11 10 11 6 0 10 -2
10 -4z m130 -22 c0 -14 -4 -23 -9 -20 -5 3 -7 15 -4 26 7 28 13 25 13 -6z
m-370 -5 c0 -5 -4 -9 -10 -9 -5 0 -10 7 -10 16 0 8 5 12 10 9 6 -3 10 -10 10
-16z m30 0 c0 -6 -4 -7 -10 -4 -5 3 -10 11 -10 16 0 6 5 7 10 4 6 -3 10 -11
10 -16z m30 5 c0 -8 -4 -12 -10 -9 -5 3 -10 10 -10 16 0 5 5 9 10 9 6 0 10 -7
10 -16z m30 6 c0 -5 -2 -10 -4 -10 -3 0 -8 5 -11 10 -3 6 -1 10 4 10 6 0 11
-4 11 -10z m30 0 c0 -5 -2 -10 -4 -10 -3 0 -8 5 -11 10 -3 6 -1 10 4 10 6 0
11 -4 11 -10z m30 0 c0 -5 -2 -10 -4 -10 -3 0 -8 5 -11 10 -3 6 -1 10 4 10 6
0 11 -4 11 -10z m-260 -10 c0 -5 -2 -10 -4 -10 -3 0 -8 5 -11 10 -3 6 -1 10 4
10 6 0 11 -4 11 -10z m50 0 c0 -5 -4 -10 -10 -10 -5 0 -10 5 -10 10 0 6 5 10
10 10 6 0 10 -4 10 -10z m376 -17 c-10 -10 -19 5 -10 18 6 11 8 11 12 0 2 -7
1 -15 -2 -18z m-56 1 c0 -8 -5 -12 -10 -9 -6 4 -8 11 -5 16 9 14 15 11 15 -7z
m-174 -21 c-10 -10 -19 5 -10 18 6 11 8 11 12 0 2 -7 1 -15 -2 -18z m34 6 c0
-6 -4 -7 -10 -4 -5 3 -10 11 -10 16 0 6 5 7 10 4 6 -3 10 -11 10 -16z m30 5
c0 -8 -4 -12 -10 -9 -5 3 -10 10 -10 16 0 5 5 9 10 9 6 0 10 -7 10 -16z m30
-21 c0 -32 -12 -23 -16 12 -1 14 2 23 7 20 5 -4 9 -18 9 -32z m30 27 c0 -5 -4
-10 -10 -10 -5 0 -10 5 -10 10 0 6 5 10 10 10 6 0 10 -4 10 -10z m80 -16 c0
-14 -4 -23 -9 -20 -5 3 -7 15 -4 26 7 28 13 25 13 -6z m-383 -6 c-3 -8 -6 -5
-6 6 -1 11 2 17 5 13 3 -3 4 -12 1 -19z m58 13 c3 -5 1 -12 -5 -16 -5 -3 -10
1 -10 9 0 18 6 21 15 7z m65 -1 c0 -5 -4 -10 -10 -10 -5 0 -10 5 -10 10 0 6 5
10 10 10 6 0 10 -4 10 -10z m30 0 c0 -5 -2 -10 -4 -10 -3 0 -8 5 -11 10 -3 6
-1 10 4 10 6 0 11 -4 11 -10z m340 -6 c0 -8 -5 -12 -10 -9 -6 4 -8 11 -5 16 9
14 15 11 15 -7z m-50 -4 c0 -5 -4 -10 -10 -10 -5 0 -10 5 -10 10 0 6 5 10 10
10 6 0 10 -4 10 -10z m-110 -10 c0 -5 -4 -10 -10 -10 -5 0 -10 5 -10 10 0 6 5
10 10 10 6 0 10 -4 10 -10z m-240 -21 c0 -5 -4 -9 -10 -9 -5 0 -10 7 -10 16 0
8 5 12 10 9 6 -3 10 -10 10 -16z m60 6 c0 -8 -4 -15 -10 -15 -5 0 -10 7 -10
15 0 8 5 15 10 15 6 0 10 -7 10 -15z m25 5 c3 -5 1 -10 -4 -10 -6 0 -11 5 -11
10 0 6 2 10 4 10 3 0 8 -4 11 -10z m35 0 c0 -5 -4 -10 -10 -10 -5 0 -10 5 -10
10 0 6 5 10 10 10 6 0 10 -4 10 -10z m30 0 c0 -5 -2 -10 -4 -10 -3 0 -8 5 -11
10 -3 6 -1 10 4 10 6 0 11 -4 11 -10z m-210 -10 c0 -5 -4 -10 -10 -10 -5 0
-10 5 -10 10 0 6 5 10 10 10 6 0 10 -4 10 -10z m90 0 c0 -5 -2 -10 -4 -10 -3
0 -8 5 -11 10 -3 6 -1 10 4 10 6 0 11 -4 11 -10z m286 -17 c-10 -10 -19 5 -10
18 6 11 8 11 12 0 2 -7 1 -15 -2 -18z m51 5 c-3 -8 -6 -5 -6 6 -1 11 2 17 5
13 3 -3 4 -12 1 -19z m-107 -4 c0 -8 -5 -12 -10 -9 -6 4 -8 11 -5 16 9 14 15
11 15 -7z m-170 -15 c0 -5 -4 -9 -10 -9 -5 0 -10 7 -10 16 0 8 5 12 10 9 6 -3
10 -10 10 -16z m30 0 c0 -6 -4 -7 -10 -4 -5 3 -10 11 -10 16 0 6 5 7 10 4 6
-3 10 -11 10 -16z m30 5 c0 -8 -4 -12 -10 -9 -5 3 -10 10 -10 16 0 5 5 9 10 9
6 0 10 -7 10 -16z m30 0 c0 -8 -4 -12 -10 -9 -5 3 -10 10 -10 16 0 5 5 9 10 9
6 0 10 -7 10 -16z m30 6 c0 -5 -4 -10 -10 -10 -5 0 -10 5 -10 10 0 6 5 10 10
10 6 0 10 -4 10 -10z m80 -16 c0 -14 -4 -23 -9 -20 -5 3 -7 15 -4 26 7 28 13
25 13 -6z m-325 7 c3 -5 1 -12 -5 -16 -5 -3 -10 1 -10 9 0 18 6 21 15 7z m65
0 c0 -6 -4 -13 -10 -16 -5 -3 -10 1 -10 9 0 9 5 16 10 16 6 0 10 -4 10 -9z
m30 -1 c0 -5 -2 -10 -4 -10 -3 0 -8 5 -11 10 -3 6 -1 10 4 10 6 0 11 -4 11
-10z m344 -11 c-3 -5 -10 -7 -15 -3 -5 3 -7 10 -3 15 3 5 10 7 15 3 5 -3 7
-10 3 -15z m-54 -5 c0 -8 -4 -12 -10 -9 -5 3 -10 10 -10 16 0 5 5 9 10 9 6 0
10 -7 10 -16z m-115 -3 c3 -5 1 -12 -5 -16 -5 -3 -10 1 -10 9 0 18 6 21 15 7z
m85 -16 c0 -14 -4 -25 -9 -25 -5 0 -8 11 -7 25 1 33 16 33 16 0z m-260 -6 c0
-5 -4 -9 -10 -9 -5 0 -10 7 -10 16 0 8 5 12 10 9 6 -3 10 -10 10 -16z m25 11
c3 -5 1 -10 -4 -10 -6 0 -11 5 -11 10 0 6 2 10 4 10 3 0 8 -4 11 -10z m33 -20
c-1 -16 -4 -27 -8 -25 -10 6 -9 55 1 55 4 0 7 -13 7 -30z m32 20 c0 -5 -4 -10
-10 -10 -5 0 -10 5 -10 10 0 6 5 10 10 10 6 0 10 -4 10 -10z m30 0 c0 -5 -4
-10 -10 -10 -5 0 -10 5 -10 10 0 6 5 10 10 10 6 0 10 -4 10 -10z m-240 -10 c0
-5 -4 -10 -10 -10 -5 0 -10 5 -10 10 0 6 5 10 10 10 6 0 10 -4 10 -10z m60 0
c0 -5 -4 -10 -10 -10 -5 0 -10 5 -10 10 0 6 5 10 10 10 6 0 10 -4 10 -10z m30
0 c0 -5 -2 -10 -4 -10 -3 0 -8 5 -11 10 -3 6 -1 10 4 10 6 0 11 -4 11 -10z
m345 1 c3 -5 1 -12 -5 -16 -5 -3 -10 1 -10 9 0 18 6 21 15 7z m-111 -22 c-3
-5 -10 -7 -15 -3 -5 3 -7 10 -3 15 3 5 10 7 15 3 5 -3 7 -10 3 -15z m-174 -10
c0 -5 -4 -9 -10 -9 -5 0 -10 7 -10 16 0 8 5 12 10 9 6 -3 10 -10 10 -16z m60
6 c0 -8 -4 -15 -10 -15 -5 0 -10 7 -10 15 0 8 5 15 10 15 6 0 10 -7 10 -15z
m30 -6 c0 -6 -4 -7 -10 -4 -5 3 -10 11 -10 16 0 6 5 7 10 4 6 -3 10 -11 10
-16z m30 11 c0 -5 -4 -10 -10 -10 -5 0 -10 5 -10 10 0 6 5 10 10 10 6 0 10 -4
10 -10z m80 -16 c0 -14 -4 -23 -9 -20 -5 3 -7 15 -4 26 7 28 13 25 13 -6z
m-325 7 c3 -5 1 -12 -5 -16 -5 -3 -10 1 -10 9 0 18 6 21 15 7z m65 0 c0 -6 -4
-13 -10 -16 -5 -3 -10 1 -10 9 0 9 5 16 10 16 6 0 10 -4 10 -9z m30 -1 c0 -5
-2 -10 -4 -10 -3 0 -8 5 -11 10 -3 6 -1 10 4 10 6 0 11 -4 11 -10z m350 -11
c0 -5 -4 -9 -10 -9 -5 0 -10 7 -10 16 0 8 5 12 10 9 6 -3 10 -10 10 -16z m-60
-5 c0 -8 -4 -12 -10 -9 -5 3 -10 10 -10 16 0 5 5 9 10 9 6 0 10 -7 10 -16z
m-110 -13 c0 -5 -11 -8 -25 -8 -14 0 -25 4 -25 9 0 5 4 7 9 3 5 -3 12 -1 16 5
7 11 25 4 25 -9z m23 -34 c-10 -17 -20 4 -15 30 l6 28 6 -25 c4 -14 5 -28 3
-33z m57 43 c0 -5 -2 -10 -4 -10 -3 0 -8 5 -11 10 -3 6 -1 10 4 10 6 0 11 -4
11 -10z m-260 -21 c0 -5 -4 -9 -10 -9 -5 0 -10 7 -10 16 0 8 5 12 10 9 6 -3
10 -10 10 -16z m25 11 c3 -5 1 -10 -4 -10 -6 0 -11 5 -11 10 0 6 2 10 4 10 3
0 8 -4 11 -10z m35 -6 c0 -8 -4 -12 -10 -9 -5 3 -10 10 -10 16 0 5 5 9 10 9 6
0 10 -7 10 -16z m25 6 c3 -5 1 -10 -4 -10 -6 0 -11 5 -11 10 0 6 2 10 4 10 3
0 8 -4 11 -10z m35 0 c0 -5 -4 -10 -10 -10 -5 0 -10 5 -10 10 0 6 5 10 10 10
6 0 10 -4 10 -10z m-180 -10 c0 -5 -7 -10 -16 -10 -8 0 -12 5 -9 10 3 6 10 10
16 10 5 0 9 -4 9 -10z m320 -16 c0 -8 -4 -12 -10 -9 -5 3 -10 10 -10 16 0 5 5
9 10 9 6 0 10 -7 10 -16z m60 6 c0 -5 -4 -10 -10 -10 -5 0 -10 5 -10 10 0 6 5
10 10 10 6 0 10 -4 10 -10z m-230 -21 c0 -5 -4 -9 -10 -9 -5 0 -10 7 -10 16 0
8 5 12 10 9 6 -3 10 -10 10 -16z m30 0 c0 -6 -4 -7 -10 -4 -5 3 -10 11 -10 16
0 6 5 7 10 4 6 -3 10 -11 10 -16z m30 0 c0 -5 -4 -9 -10 -9 -5 0 -10 7 -10 16
0 8 5 12 10 9 6 -3 10 -10 10 -16z m-295 1 c3 -5 1 -10 -4 -10 -6 0 -11 5 -11
10 0 6 2 10 4 10 3 0 8 -4 11 -10z m50 1 c3 -5 1 -12 -5 -16 -5 -3 -10 1 -10
9 0 18 6 21 15 7z m65 -1 c0 -16 -17 -19 -34 -7 -14 11 -13 12 9 13 14 1 25
-2 25 -6z m60 0 c0 -5 -4 -10 -10 -10 -5 0 -10 5 -10 10 0 6 5 10 10 10 6 0
10 -4 10 -10z m30 0 c0 -5 -4 -10 -10 -10 -5 0 -10 5 -10 10 0 6 5 10 10 10 6
0 10 -4 10 -10z m230 -16 c0 -8 -4 -12 -10 -9 -5 3 -10 10 -10 16 0 5 5 9 10
9 6 0 10 -7 10 -16z m30 -5 c0 -6 -4 -7 -10 -4 -5 3 -10 11 -10 16 0 6 5 7 10
4 6 -3 10 -11 10 -16z m30 11 c0 -5 -4 -10 -10 -10 -5 0 -10 5 -10 10 0 6 5
10 10 10 6 0 10 -4 10 -10z m-173 -26 c-9 -9 -28 6 -21 18 4 6 10 6 17 -1 6
-6 8 -13 4 -17z m20 4 c-3 -8 -6 -5 -6 6 -1 11 2 17 5 13 3 -3 4 -12 1 -19z
m33 7 c0 -8 -2 -15 -4 -15 -2 0 -6 7 -10 15 -3 8 -1 15 4 15 6 0 10 -7 10 -15z
m30 5 c0 -5 -2 -10 -4 -10 -3 0 -8 5 -11 10 -3 6 -1 10 4 10 6 0 11 -4 11 -10z
m-260 -21 c0 -12 -37 -12 -45 1 -3 6 1 7 9 4 9 -3 16 -1 16 6 0 6 5 8 10 5 6
-3 10 -10 10 -16z m30 0 c0 -6 -4 -7 -10 -4 -5 3 -10 11 -10 16 0 6 5 7 10 4
6 -3 10 -11 10 -16z m30 0 c0 -5 -4 -9 -10 -9 -5 0 -10 7 -10 16 0 8 5 12 10
9 6 -3 10 -10 10 -16z m28 -14 c0 -14 -4 -25 -9 -25 -4 0 -7 13 -7 30 1 35 16
31 16 -5z m32 19 c0 -8 -4 -12 -10 -9 -5 3 -10 10 -10 16 0 5 5 9 10 9 6 0 10
-7 10 -16z m-180 -4 c0 -5 -7 -10 -16 -10 -8 0 -12 5 -9 10 3 6 10 10 16 10 5
0 9 -4 9 -10z m320 -16 c0 -8 -4 -12 -10 -9 -5 3 -10 10 -10 16 0 5 5 9 10 9
6 0 10 -7 10 -16z m30 6 c0 -5 -2 -10 -4 -10 -3 0 -8 5 -11 10 -3 6 -1 10 4
10 6 0 11 -4 11 -10z m30 0 c0 -5 -4 -10 -10 -10 -5 0 -10 5 -10 10 0 6 5 10
10 10 6 0 10 -4 10 -10z m-175 -9 c3 -5 1 -12 -5 -16 -5 -3 -10 1 -10 9 0 18
6 21 15 7z m85 1 c0 -10 -36 -9 -46 1 -4 4 5 7 19 7 15 0 27 -4 27 -8z m-325
-11 c3 -5 1 -12 -5 -16 -5 -3 -10 1 -10 9 0 18 6 21 15 7z m52 -6 c1 -11 -17
-8 -30 4 -4 4 0 7 10 6 10 0 19 -5 20 -10z m61 2 c1 -4 0 -7 -3 -7 -3 0 -12 0
-20 0 -8 0 -15 4 -15 8 0 10 34 9 38 -1z m37 3 c3 -5 1 -10 -4 -10 -6 0 -11 5
-11 10 0 6 2 10 4 10 3 0 8 -4 11 -10z m65 0 c0 -5 -4 -10 -10 -10 -5 0 -10 5
-10 10 0 6 5 10 10 10 6 0 10 -4 10 -10z m170 -16 c0 -8 -5 -12 -10 -9 -6 4
-8 11 -5 16 9 14 15 11 15 -7z m30 -5 c0 -6 -4 -7 -10 -4 -5 3 -10 11 -10 16
0 6 5 7 10 4 6 -3 10 -11 10 -16z m30 11 c0 -5 -4 -10 -10 -10 -5 0 -10 5 -10
10 0 6 5 10 10 10 6 0 10 -4 10 -10z m-173 -26 c-9 -9 -28 6 -21 18 4 6 10 6
17 -1 6 -6 8 -13 4 -17z m20 4 c-3 -8 -6 -5 -6 6 -1 11 2 17 5 13 3 -3 4 -12
1 -19z m33 6 c0 -8 -4 -12 -10 -9 -5 3 -10 10 -10 16 0 5 5 9 10 9 6 0 10 -7
10 -16z m30 6 c0 -5 -2 -10 -4 -10 -3 0 -8 5 -11 10 -3 6 -1 10 4 10 6 0 11
-4 11 -10z m-200 -21 c0 -5 -4 -9 -10 -9 -5 0 -10 7 -10 16 0 8 5 12 10 9 6
-3 10 -10 10 -16z m24 6 c3 -8 1 -15 -4 -15 -6 0 -10 7 -10 15 0 8 2 15 4 15
2 0 6 -7 10 -15z m36 -6 c0 -5 -4 -9 -10 -9 -5 0 -10 7 -10 16 0 8 5 12 10 9
6 -3 10 -10 10 -16z m-186 -10 c-3 -5 -10 -7 -15 -3 -5 3 -7 10 -3 15 3 5 10
7 15 3 5 -3 7 -10 3 -15z m61 11 c3 -5 -1 -10 -10 -10 -9 0 -13 5 -10 10 3 6
8 10 10 10 2 0 7 -4 10 -10z m30 0 c3 -5 1 -10 -4 -10 -6 0 -11 5 -11 10 0 6
2 10 4 10 3 0 8 -4 11 -10z m235 -16 c0 -8 -5 -12 -10 -9 -6 4 -8 11 -5 16 9
14 15 11 15 -7z m25 6 c3 -5 1 -10 -4 -10 -6 0 -11 5 -11 10 0 6 2 10 4 10 3
0 8 -4 11 -10z m35 0 c0 -5 -4 -10 -10 -10 -5 0 -10 5 -10 10 0 6 5 10 10 10
6 0 10 -4 10 -10z m30 0 c0 -5 -2 -10 -4 -10 -3 0 -8 5 -11 10 -3 6 -1 10 4
10 6 0 11 -4 11 -10z m-206 -21 c-3 -5 -10 -7 -15 -3 -5 3 -7 10 -3 15 3 5 10
7 15 3 5 -3 7 -10 3 -15z m86 12 c0 -10 -39 -11 -45 -2 -2 5 7 9 20 9 14 0 25
-3 25 -7z m-325 -11 c3 -5 1 -10 -4 -10 -6 0 -11 5 -11 10 0 6 2 10 4 10 3 0
8 -4 11 -10z m60 1 c3 -5 1 -12 -5 -16 -5 -3 -10 1 -10 9 0 18 6 21 15 7z m53
-4 c1 -4 0 -7 -3 -7 -3 0 -12 0 -20 0 -8 0 -15 4 -15 8 0 10 34 9 38 -1z m67
4 c2 -5 -7 -8 -20 -8 -14 0 -25 2 -25 6 0 10 39 11 45 2z m205 -17 c0 -8 -5
-12 -10 -9 -6 4 -8 11 -5 16 9 14 15 11 15 -7z m30 -5 c0 -6 -4 -7 -10 -4 -5
3 -10 11 -10 16 0 6 5 7 10 4 6 -3 10 -11 10 -16z m30 11 c0 -5 -4 -10 -10
-10 -5 0 -10 5 -10 10 0 6 5 10 10 10 6 0 10 -4 10 -10z m-173 -26 c-9 -9 -28
6 -21 18 4 6 10 6 17 -1 6 -6 8 -13 4 -17z m20 4 c-3 -8 -6 -5 -6 6 -1 11 2
17 5 13 3 -3 4 -12 1 -19z m33 7 c0 -19 -6 -19 -14 0 -3 8 -1 15 4 15 6 0 10
-7 10 -15z m30 5 c0 -5 -2 -10 -4 -10 -3 0 -8 5 -11 10 -3 6 -1 10 4 10 6 0
11 -4 11 -10z m-200 -21 c0 -5 -4 -9 -10 -9 -5 0 -10 7 -10 16 0 8 5 12 10 9
6 -3 10 -10 10 -16z m57 -5 c-9 -9 -28 6 -21 18 4 6 10 6 17 -1 6 -6 8 -13 4
-17z m-182 6 c3 -5 1 -10 -4 -10 -6 0 -11 5 -11 10 0 6 2 10 4 10 3 0 8 -4 11
-10z m61 -3 c4 -4 -2 -7 -14 -7 -11 0 -23 4 -26 8 -6 10 30 9 40 -1z m29 3 c3
-5 1 -10 -4 -10 -6 0 -11 5 -11 10 0 6 2 10 4 10 3 0 8 -4 11 -10z"/>
<path d="M2932 4378 c3 -7 13 -15 24 -17 16 -3 17 -1 5 13 -16 19 -34 21 -29
4z"/>
<path d="M2813 4363 l-23 -15 25 -20 c14 -11 30 -16 36 -12 7 4 9 3 6 -3 -8
-12 57 -28 73 -18 6 3 10 2 10 -4 0 -6 7 -8 15 -5 8 4 15 1 15 -5 0 -6 11 -8
30 -4 18 3 30 1 30 -5 0 -6 -10 -13 -22 -15 -13 -3 -8 -4 11 -4 39 2 47 14 27
42 -9 12 -27 19 -52 20 -40 2 -89 20 -111 41 -7 7 -22 10 -34 7 -15 -4 -20 -3
-15 5 9 15 6 14 -21 -5z"/>
<path d="M2890 4370 c0 -5 14 -16 30 -25 17 -9 30 -11 30 -5 0 5 -7 10 -15 10
-9 0 -18 7 -21 15 -7 17 -24 21 -24 5z"/>
<path d="M2650 4333 c-14 -3 -28 -11 -32 -18 -5 -7 -17 -11 -28 -8 -14 4 -20
1 -18 -7 2 -7 -3 -15 -11 -18 -9 -3 -11 0 -6 8 5 9 4 11 -3 6 -7 -4 -12 -14
-12 -22 0 -8 -4 -13 -9 -10 -4 3 -16 -3 -26 -14 -10 -11 -14 -20 -10 -20 5 0
4 -5 -3 -12 -7 -7 -12 -15 -12 -18 0 -13 69 -1 125 22 33 14 101 31 150 37 50
7 96 14 104 17 25 8 -56 44 -101 45 -34 0 -39 2 -23 9 17 8 15 9 -10 7 -16 -1
-36 -9 -43 -17 -12 -13 -13 -13 -8 3 3 9 4 16 3 16 -1 -1 -13 -4 -27 -6z m-90
-97 c0 -2 -8 -10 -17 -17 -16 -13 -17 -12 -4 4 13 16 21 21 21 13z"/>
<path d="M1632 4305 c-11 -14 -23 -25 -27 -25 -4 0 -25 -14 -46 -31 -32 -25
-37 -34 -28 -45 6 -8 23 -13 38 -12 15 1 33 -2 40 -7 11 -6 13 -4 8 8 -9 23
22 30 49 12 26 -17 74 -11 74 9 0 7 3 7 8 1 4 -5 39 -11 77 -12 89 -2 164 -9
204 -18 36 -8 43 8 11 25 -11 6 -18 15 -14 21 4 6 12 5 21 -3 14 -11 14 -9 0
19 -9 17 -25 34 -34 37 -48 14 -91 16 -117 6 -23 -8 -31 -8 -38 2 -8 14 -12 4
-8 -27 2 -16 0 -17 -13 -6 -9 7 -13 19 -10 28 5 13 -2 15 -45 12 -39 -3 -52 0
-56 11 -3 13 -4 13 -5 0 -1 -9 -19 -21 -45 -29 -25 -7 -47 -18 -49 -24 -2 -7
-7 -10 -10 -7 -3 3 0 13 7 22 12 16 37 25 74 27 6 1 12 5 12 10 0 4 -14 7 -31
5 -18 -2 -28 0 -24 6 12 20 -4 9 -23 -15z m313 -25 c3 -5 1 -10 -4 -10 -6 0
-11 5 -11 10 0 6 2 10 4 10 3 0 8 -4 11 -10z m-135 -8 c0 -5 -7 -9 -15 -9 -8
0 -12 4 -9 9 3 4 9 8 15 8 5 0 9 -4 9 -8z m210 -12 c8 -5 11 -12 7 -16 -4 -4
-15 0 -24 9 -18 18 -8 23 17 7z m-329 -43 c-10 -9 -11 -8 -5 6 3 10 9 15 12
12 3 -3 0 -11 -7 -18z"/>
<path d="M1510 4180 c-12 -8 -11 -10 8 -10 12 0 22 5 22 10 0 13 -11 13 -30 0z"/>
<path d="M2666 4181 c-4 -5 3 -7 14 -4 23 6 26 13 6 13 -8 0 -17 -4 -20 -9z"/>
<path d="M2891 4177 c15 -13 69 -34 69 -27 0 4 -14 13 -31 19 -32 11 -46 14
-38 8z"/>
<path d="M1895 4150 c3 -4 24 -10 47 -14 23 -4 49 -12 58 -18 13 -11 13 -10 0
5 -15 16 -114 42 -105 27z"/>
<path d="M2710 4128 c-19 -5 -46 -18 -60 -29 l-25 -20 31 15 c31 15 32 15 37
-14 4 -16 18 -37 32 -46 24 -16 27 -16 45 1 11 10 20 13 20 7 0 -6 -6 -13 -12
-15 -8 -3 -6 -6 5 -6 25 -1 57 35 57 64 0 31 8 31 70 -1 41 -21 48 -29 39 -40
-8 -10 -8 -14 0 -14 6 0 11 5 11 10 0 6 11 8 27 4 27 -7 27 -7 12 17 -11 16
-41 33 -95 51 -83 28 -136 32 -194 16z m45 -38 c-5 -8 -11 -8 -17 -2 -6 6 -7
16 -3 22 5 8 11 8 17 2 6 -6 7 -16 3 -22z m45 5 c0 -8 -4 -15 -10 -15 -5 0
-10 7 -10 15 0 8 5 15 10 15 6 0 10 -7 10 -15z"/>
<path d="M1635 4100 c-26 -12 -33 -19 -20 -19 11 0 36 8 55 19 45 24 18 24
-35 0z"/>
<path d="M1775 4101 c-51 -13 -153 -62 -171 -82 -16 -18 -16 -19 2 -19 10 0
42 14 69 30 55 33 85 38 85 15 0 -23 43 -62 66 -60 47 4 64 17 74 56 6 21 15
39 21 39 5 0 29 -9 51 -20 23 -11 43 -18 45 -16 3 2 -21 16 -53 32 -59 29
-135 39 -189 25z m55 -36 c0 -8 -4 -15 -10 -15 -5 0 -10 7 -10 15 0 8 5 15 10
15 6 0 10 -7 10 -15z m50 1 c0 -8 -4 -18 -10 -21 -5 -3 -10 3 -10 14 0 12 5
21 10 21 6 0 10 -6 10 -14z m-55 -56 c3 -5 1 -10 -4 -10 -6 0 -11 5 -11 10 0
6 2 10 4 10 3 0 8 -4 11 -10z m45 6 c0 -11 -19 -15 -25 -6 -3 5 1 10 9 10 9 0
16 -2 16 -4z"/>
<path d="M1660 4000 c-8 -5 -12 -12 -9 -15 4 -3 12 1 19 10 14 17 11 19 -10 5z"/>
<path d="M2140 3521 c0 -5 12 -11 27 -14 26 -5 26 -4 8 9 -22 16 -35 18 -35 5z"/>
<path d="M2438 3522 c-10 -2 -18 -8 -18 -13 0 -6 4 -8 9 -5 4 3 16 -3 26 -14
23 -25 35 -25 28 0 -7 25 -24 37 -45 32z"/>
<path d="M2165 3410 c3 -5 2 -10 -3 -10 -5 0 -20 -15 -33 -34 -13 -19 -27 -33
-30 -30 -4 2 -10 0 -14 -6 -9 -15 -28 -12 -19 3 4 6 -2 3 -14 -7 -12 -11 -22
-16 -22 -11 0 4 -7 2 -15 -5 -10 -8 -15 -9 -15 -2 0 23 -61 -10 -77 -42 -12
-22 -18 -27 -21 -14 -3 14 -7 12 -29 -8 -14 -13 -24 -27 -20 -30 3 -3 -3 -14
-14 -25 -10 -10 -19 -27 -19 -36 1 -17 1 -17 11 0 17 29 28 19 18 -15 -5 -18
-9 -34 -9 -35 0 -7 36 12 42 22 4 7 18 10 31 8 13 -3 45 5 71 16 26 12 50 20
54 18 4 -3 16 -1 27 3 15 5 9 9 -25 14 -25 5 -39 10 -32 13 6 3 12 12 13 21 0
14 2 14 8 -2 7 -18 8 -18 30 5 15 17 20 19 16 7 -9 -22 -1 -23 19 -2 13 13 16
13 16 1 0 -9 10 -14 25 -14 20 0 23 2 15 12 -8 9 -8 15 0 20 5 3 10 2 10 -3 0
-19 30 -7 31 12 0 20 1 20 8 2 5 -14 10 -16 15 -8 4 7 14 12 22 12 8 0 12 -4
9 -10 -9 -15 8 -12 33 6 20 14 28 14 54 3 42 -17 71 -19 81 -5 5 6 6 3 3 -9
-3 -11 -1 -27 5 -35 9 -13 10 -12 5 3 -3 9 -1 17 5 17 6 0 7 5 3 12 -4 7 -3 8
4 4 7 -4 12 -15 13 -24 0 -14 2 -13 9 3 8 18 9 18 10 -5 l1 -25 15 28 c12 21
19 26 28 18 7 -6 25 -12 40 -13 14 -1 26 -7 26 -12 0 -6 5 -5 12 2 9 9 16 8
30 -5 27 -24 22 -33 -17 -33 -19 0 -35 -4 -35 -8 0 -9 5 -10 67 -15 24 -2 46
-7 50 -10 3 -4 12 -2 20 4 10 9 13 8 13 -5 0 -10 4 -15 9 -12 5 3 7 14 4 25
-3 11 2 21 11 24 9 4 16 2 16 -2 0 -5 -5 -11 -11 -13 -9 -3 -9 -9 0 -26 11
-20 41 -21 41 -1 0 4 -7 6 -15 3 -8 -4 -15 -1 -15 5 0 6 4 11 10 11 13 0 1 58
-21 95 -9 17 -22 29 -29 27 -7 -1 -18 2 -26 9 -7 6 -18 8 -24 4 -5 -3 -10 -1
-10 6 0 7 -3 10 -6 6 -4 -3 -24 3 -46 14 -21 11 -43 17 -48 14 -5 -3 -19 4
-31 16 -14 14 -24 18 -28 11 -4 -7 -11 -4 -19 8 -7 11 -8 20 -3 20 5 0 12 -6
14 -12 4 -8 6 -9 6 -2 1 7 -10 19 -24 28 -23 15 -24 15 -18 -1 6 -16 5 -16
-10 -5 -14 12 -19 12 -31 -1 -8 -8 -13 -17 -11 -19 3 -3 -2 -5 -10 -5 -8 0
-15 5 -15 11 0 5 -7 1 -15 -10 -14 -19 -14 -19 -15 1 -1 11 -4 15 -6 8 -3 -7
-12 -9 -21 -6 -8 3 -19 0 -24 -8 -5 -8 -9 -9 -9 -2 0 6 -9 9 -22 6 -19 -4 -20
-3 -8 6 9 7 11 11 3 11 -7 0 -17 -8 -22 -17 -6 -11 -11 -13 -11 -5 0 7 -5 10
-10 7 -6 -4 -10 -3 -9 2 4 18 -14 43 -33 43 -10 0 -16 -4 -13 -10z m275 -32
c0 -18 -2 -20 -9 -8 -6 8 -7 18 -5 22 9 14 14 9 14 -14z m-110 -29 c0 -6 -4
-7 -10 -4 -5 3 -10 11 -10 16 0 6 5 7 10 4 6 -3 10 -11 10 -16z m-74 -24 c-1
-19 -5 -37 -8 -40 -3 -3 -4 9 -3 27 4 45 4 48 10 48 2 0 3 -16 1 -35z m25 -8
c-10 -9 -11 -8 -5 6 3 10 9 15 12 12 3 -3 0 -11 -7 -18z m183 -32 c-5 -26 -9
-33 -15 -23 -12 18 -11 41 1 33 6 -3 10 4 10 16 0 12 3 20 6 17 3 -3 2 -23 -2
-43z m-67 13 c-3 -8 -6 -5 -6 6 -1 11 2 17 5 13 3 -3 4 -12 1 -19z m-205 -10
c-7 -7 -12 -8 -12 -2 0 14 12 26 19 19 2 -3 -1 -11 -7 -17z m-299 -73 c-3 -9
-8 -14 -10 -11 -3 3 -2 9 2 15 9 16 15 13 8 -4z m865 -10 c-3 -3 -9 2 -12 12
-6 14 -5 15 5 6 7 -7 10 -15 7 -18z m-24 -1 c3 -8 2 -12 -4 -9 -6 3 -10 10
-10 16 0 14 7 11 14 -7z"/>
<path d="M2215 3236 c-23 -25 -26 -40 -4 -19 12 12 21 24 18 27 -2 2 -9 -1
-14 -8z"/>
<path d="M1480 3191 c0 -5 7 -12 16 -15 14 -5 15 -4 4 9 -14 17 -20 19 -20 6z"/>
<path d="M1495 3129 c-4 -6 -5 -12 -2 -15 2 -3 7 2 10 11 7 17 1 20 -8 4z"/>
<path d="M1550 3108 c-12 -22 -12 -22 6 -6 10 10 15 20 12 24 -4 3 -12 -5 -18
-18z"/>
<path d="M2225 3010 c3 -5 8 -10 11 -10 2 0 4 5 4 10 0 6 -5 10 -11 10 -5 0
-7 -4 -4 -10z"/>
<path d="M2256 3004 c4 -11 3 -15 -1 -11 -5 4 -15 -3 -22 -15 -13 -22 -13 -22
-8 -2 6 24 -20 42 -29 21 -5 -9 -7 -9 -12 1 -7 15 -34 16 -34 1 0 -8 -4 -8
-14 0 -10 8 -16 9 -21 1 -3 -5 -1 -10 5 -10 6 0 8 -5 5 -10 -4 -6 -1 -9 7 -8
7 2 12 -5 12 -15 -2 -14 1 -15 11 -7 8 6 11 19 8 28 -4 14 -3 14 5 3 7 -10 7
-21 1 -33 -6 -12 -6 -18 1 -19 14 -2 22 -5 44 -14 12 -5 21 -3 27 6 7 11 9 11
9 -3 0 -10 5 -18 10 -18 6 0 10 5 10 10 0 6 5 10 11 10 5 0 8 -4 5 -9 -4 -5 3
-7 14 -4 12 3 29 -2 39 -11 16 -15 18 -15 17 6 -1 17 4 22 17 20 9 -2 17 1 17
6 0 5 12 7 27 4 21 -4 25 -2 20 11 -3 8 0 18 8 21 8 3 13 13 12 24 -1 14 -7
17 -24 14 -13 -2 -31 2 -40 9 -14 12 -16 12 -11 -2 3 -9 2 -22 -3 -30 -6 -10
-9 -7 -9 11 0 21 -5 26 -27 28 -23 1 -25 0 -13 -9 12 -9 11 -10 -5 -4 -11 3
-32 9 -48 12 -24 5 -26 3 -21 -13z m95 -31 c-12 -20 -14 -14 -5 12 4 9 9 14
11 11 3 -2 0 -13 -6 -23z m-117 -38 c-4 -8 -11 -15 -16 -15 -6 0 -5 6 2 15 7
8 14 15 16 15 2 0 1 -7 -2 -15z m116 11 c0 -2 -8 -10 -17 -17 -16 -13 -17 -12
-4 4 13 16 21 21 21 13z"/>
<path d="M2987 3000 c3 -11 9 -17 15 -14 5 3 4 12 -3 20 -16 19 -18 18 -12 -6z"/>
<path d="M2481 3001 c-12 -8 -12 -11 1 -25 14 -14 16 -13 14 9 0 14 -1 25 -1
25 0 0 -6 -4 -14 -9z"/>
<path d="M2457 2963 c-10 -9 -8 -43 2 -43 5 0 9 11 9 25 0 27 -1 28 -11 18z"/>
<path d="M2940 2896 c0 -2 8 -10 18 -17 15 -13 16 -12 3 4 -13 16 -21 21 -21
13z"/>
<path d="M2911 2854 c0 -11 3 -14 6 -6 3 7 2 16 -1 19 -3 4 -6 -2 -5 -13z"/>
<path d="M2030 2789 c0 -5 5 -7 10 -4 6 3 10 8 10 11 0 2 -4 4 -10 4 -5 0 -10
-5 -10 -11z"/>
<path d="M2560 2781 c0 -6 5 -13 10 -16 6 -3 10 1 10 9 0 9 -4 16 -10 16 -5 0
-10 -4 -10 -9z"/>
<path d="M2596 2782 c-2 -4 -7 -25 -10 -47 -3 -22 -3 -34 0 -27 5 10 9 9 20
-5 13 -16 13 -16 5 8 -5 14 -7 37 -4 52 5 26 0 36 -11 19z"/>
<path d="M2526 2771 c-4 -5 -2 -12 3 -15 5 -4 12 -2 15 3 4 5 2 12 -3 15 -5 4
-12 2 -15 -3z"/>
<path d="M2095 2740 c-3 -5 -1 -10 4 -10 6 0 11 5 11 10 0 6 -2 10 -4 10 -3 0
-8 -4 -11 -10z"/>
<path d="M2543 2723 c-7 -2 -13 -21 -13 -41 l0 -37 20 30 c29 44 27 62 -7 48z"/>
<path d="M2075 2700 c-3 -6 1 -7 9 -4 18 7 21 14 7 14 -6 0 -13 -4 -16 -10z"/>
<path d="M2440 2681 c0 -6 4 -13 10 -16 6 -3 7 1 4 9 -7 18 -14 21 -14 7z"/>
<path d="M2191 2644 c0 -11 3 -14 6 -6 3 7 2 16 -1 19 -3 4 -6 -2 -5 -13z"/>
<path d="M2280 2589 c0 -5 5 -7 10 -4 6 3 10 8 10 11 0 2 -4 4 -10 4 -5 0 -10
-5 -10 -11z"/>
<path d="M3330 5740 c0 -5 5 -10 10 -10 6 0 10 5 10 10 0 6 -4 10 -10 10 -5 0
-10 -4 -10 -10z"/>
<path d="M1720 2606 c0 -2 7 -7 16 -10 8 -3 12 -2 9 4 -6 10 -25 14 -25 6z"/>
</g>
</svg>
